<svg width="25" height="21" viewBox="0 0 25 21" fill="none" xmlns="http://www.w3.org/2000/svg">
<path d="M22.7607 8.91198H5.46491L10.7587 2.55365C10.7587 2.55365 11.1253 1.87188 11.0897 1.48626C11.0542 1.10064 10.8669 0.744934 10.5691 0.497399C10.2713 0.249864 9.88731 0.130773 9.50169 0.166327C9.11606 0.201881 8.76036 0.389167 8.51282 0.686983L1.22116 9.43698C1.1721 9.50658 1.12823 9.57969 1.08991 9.65573C1.08991 9.72865 1.08991 9.7724 0.987826 9.84532C0.921725 10.0125 0.887115 10.1905 0.885742 10.3703C0.887115 10.5501 0.921725 10.7281 0.987826 10.8953C0.987826 10.9682 0.987825 11.012 1.08991 11.0849C1.12823 11.1609 1.1721 11.2341 1.22116 11.3036L8.51282 20.0536C8.64994 20.2183 8.82165 20.3507 9.01573 20.4414C9.20981 20.5321 9.4215 20.579 9.63574 20.5786C9.97649 20.5793 10.3067 20.4606 10.5691 20.2432C10.7167 20.1208 10.8388 19.9704 10.9283 19.8008C11.0178 19.6311 11.0729 19.4454 11.0905 19.2544C11.1081 19.0634 11.0878 18.8708 11.0309 18.6877C10.974 18.5045 10.8815 18.3343 10.7587 18.187L5.46491 11.8286H22.7607C23.1475 11.8286 23.5184 11.675 23.7919 11.4015C24.0654 11.128 24.2191 10.7571 24.2191 10.3703C24.2191 9.98354 24.0654 9.61261 23.7919 9.33912C23.5184 9.06563 23.1475 8.91198 22.7607 8.91198Z" fill="#404040"/>
</svg>
