<svg width="65" height="46" viewBox="0 0 65 46" fill="none" xmlns="http://www.w3.org/2000/svg">
<g clip-path="url(#clip0_2946_42782)">
<path fill-rule="evenodd" clip-rule="evenodd" d="M64.058 32.9903C64.058 34.2913 63.0217 35.3135 61.7029 35.3135H17.4275C16.1087 35.3135 15.0724 34.2913 15.0724 32.9903V3.25292C15.0724 1.95191 16.1087 0.929688 17.4275 0.929688H61.7029C63.0217 0.929688 64.058 1.95191 64.058 3.25292V32.9903Z" fill="#C4E1F7" stroke="#1485E0" stroke-width="4"/>
<path fill-rule="evenodd" clip-rule="evenodd" d="M15.5435 5.11328H63.5869V11.6183H15.5435V5.11328Z" fill="#1485E0"/>
<path fill-rule="evenodd" clip-rule="evenodd" d="M18.8406 15.332H60.2899V19.9785H18.8406V15.332Z" fill="white"/>
<path d="M60.2899 24.1602H59.8188" stroke="#1485E0" stroke-width="2"/>
<path d="M58.8768 24.1602H19.7826" stroke="#1485E0" stroke-width="2" stroke-dasharray="2 2"/>
<path d="M19.3116 24.1602H18.8406" stroke="#1485E0" stroke-width="2"/>
<path d="M60.2899 26.9492H59.8188" stroke="#1485E0" stroke-width="2"/>
<path d="M58.8768 26.9492H19.7826" stroke="#1485E0" stroke-width="2" stroke-dasharray="2 2"/>
<path d="M19.3116 26.9492H18.8406" stroke="#1485E0" stroke-width="2"/>
<path fill-rule="evenodd" clip-rule="evenodd" d="M49.9275 42.7481C49.9275 44.0491 48.8913 45.0713 47.5725 45.0713H3.29709C1.97825 45.0713 0.942017 44.0491 0.942017 42.7481V13.0107C0.942017 11.7097 1.97825 10.6875 3.29709 10.6875H47.5725C48.8913 10.6875 49.9275 11.7097 49.9275 13.0107V42.7481Z" fill="white" stroke="#1485E0" stroke-width="4"/>
<path d="M29.2971 32.8532C32.3407 32.8532 34.808 30.4193 34.808 27.4168C34.808 24.4144 32.3407 21.9805 29.2971 21.9805C26.2535 21.9805 23.7862 24.4144 23.7862 27.4168C23.7862 30.4193 26.2535 32.8532 29.2971 32.8532Z" fill="#C4E1F7"/>
<path d="M21.4312 32.8532C24.4747 32.8532 26.942 30.4193 26.942 27.4168C26.942 24.4144 24.4747 21.9805 21.4312 21.9805C18.3876 21.9805 15.9203 24.4144 15.9203 27.4168C15.9203 30.4193 18.3876 32.8532 21.4312 32.8532Z" fill="#1485E0"/>
<path fill-rule="evenodd" clip-rule="evenodd" d="M29.2971 21.9801C32.3587 21.9801 34.808 24.3962 34.808 27.4164C34.808 30.4366 32.3587 32.8528 29.2971 32.8528C26.2355 32.8528 23.7862 30.4366 23.7862 27.4164C23.7862 24.3962 26.2826 21.9801 29.2971 21.9801ZM29.2971 21.0508C25.7174 21.0508 22.8442 23.8851 22.8442 27.4164C22.8442 30.9478 25.7174 33.7821 29.2971 33.7821C32.8768 33.7821 35.75 30.9478 35.75 27.4164C35.75 23.8851 32.8768 21.0508 29.2971 21.0508Z" fill="white"/>
</g>
<defs>
<clipPath id="clip0_2946_42782">
<rect width="65" height="46" fill="white"/>
</clipPath>
</defs>
</svg>
