<svg width="19" height="21" viewBox="0 0 19 21" fill="none" xmlns="http://www.w3.org/2000/svg">
<path fill-rule="evenodd" clip-rule="evenodd" d="M0.5 17.5C0.5 18.2956 0.816071 19.0587 1.37868 19.6213C1.94129 20.1839 2.70435 20.5 3.5 20.5H15.5C16.2956 20.5 17.0587 20.1839 17.6213 19.6213C18.1839 19.0587 18.5 18.2956 18.5 17.5V7.328C18.4996 6.53276 18.1834 5.77023 17.621 5.208L13.793 1.378C13.2304 0.815719 12.4674 0.499905 11.672 0.5H3.5C2.70435 0.5 1.94129 0.816071 1.37868 1.37868C0.816071 1.94129 0.5 2.70435 0.5 3.5V17.5ZM14.5 9.5C14.5 9.23478 14.3946 8.98043 14.2071 8.79289C14.0196 8.60536 13.7652 8.5 13.5 8.5C13.2348 8.5 12.9804 8.60536 12.7929 8.79289C12.6054 8.98043 12.5 9.23478 12.5 9.5V15.5C12.5 15.7652 12.6054 16.0196 12.7929 16.2071C12.9804 16.3946 13.2348 16.5 13.5 16.5C13.7652 16.5 14.0196 16.3946 14.2071 16.2071C14.3946 16.0196 14.5 15.7652 14.5 15.5V9.5ZM10.5 11.5C10.5 11.2348 10.3946 10.9804 10.2071 10.7929C10.0196 10.6054 9.76522 10.5 9.5 10.5C9.23478 10.5 8.98043 10.6054 8.79289 10.7929C8.60536 10.9804 8.5 11.2348 8.5 11.5V15.5C8.5 15.7652 8.60536 16.0196 8.79289 16.2071C8.98043 16.3946 9.23478 16.5 9.5 16.5C9.76522 16.5 10.0196 16.3946 10.2071 16.2071C10.3946 16.0196 10.5 15.7652 10.5 15.5V11.5ZM6.5 13.495C6.49867 13.2298 6.39205 12.976 6.20357 12.7894C6.0151 12.6028 5.76022 12.4987 5.495 12.5C5.22978 12.5013 4.97596 12.608 4.78936 12.7964C4.60276 12.9849 4.49867 13.2398 4.5 13.505L4.51 15.505C4.51133 15.7702 4.61795 16.024 4.80643 16.2106C4.9949 16.3972 5.24978 16.5013 5.515 16.5C5.78022 16.4987 6.03404 16.392 6.22064 16.2036C6.40724 16.0151 6.51133 15.7602 6.51 15.495L6.5 13.495Z" fill="#808080"/>
</svg>
