<svg width="23" height="12" viewBox="0 0 23 12" fill="none" xmlns="http://www.w3.org/2000/svg">
<path d="M0.75 0.882812H22.25V9.08022C22.25 9.85167 21.9904 10.5915 21.5284 11.137C21.0664 11.6825 20.4398 11.989 19.7865 11.989H3.21354C2.56017 11.989 1.93356 11.6825 1.47155 11.137C1.00955 10.5915 0.75 9.85167 0.75 9.08022V0.882812ZM15.5312 6.06569C15.3174 6.06569 15.1123 6.16599 14.9611 6.34451C14.8099 6.52304 14.725 6.76517 14.725 7.01765C14.725 7.27012 14.8099 7.51226 14.9611 7.69078C15.1123 7.86931 15.3174 7.9696 15.5312 7.9696H18.2188C18.4326 7.9696 18.6377 7.86931 18.7889 7.69078C18.9401 7.51226 19.025 7.27012 19.025 7.01765C19.025 6.76517 18.9401 6.52304 18.7889 6.34451C18.6377 6.16599 18.4326 6.06569 18.2188 6.06569H15.5312Z" fill="#808080"/>
</svg>
