<svg width="19" height="23" viewBox="0 0 19 23" fill="none" xmlns="http://www.w3.org/2000/svg">
<path d="M18.25 16.1434C18.25 15.8203 18.1863 15.5004 18.0627 15.2018C17.939 14.9033 17.7577 14.6321 17.5291 14.4037C17.3006 14.1752 17.0293 13.9941 16.7307 13.8705C16.4322 13.747 16.1122 13.6835 15.7891 13.6836H3.21094C2.88772 13.6835 2.56765 13.747 2.26901 13.8706C1.97037 13.9943 1.69902 14.1755 1.47047 14.4041C1.24192 14.6326 1.06066 14.904 0.937035 15.2026C0.813412 15.5012 0.749856 15.8213 0.75 16.1445V17.1508C0.75 17.7753 0.944688 18.3856 1.30781 18.8953C2.99547 21.2622 5.75391 22.4347 9.49563 22.4347C13.2362 22.4347 15.998 21.2633 17.6878 18.8964C18.0526 18.3869 18.2491 17.7763 18.25 17.1497V16.1445V16.1434Z" fill="#808080"/>
<path d="M14.9655 6.03193C14.9656 4.88017 14.6021 3.75776 13.9268 2.82474C13.2515 1.89173 12.2988 1.19575 11.2047 0.836044C10.1105 0.476337 8.93071 0.471265 7.8335 0.821554C6.73629 1.17184 5.77769 1.85961 5.09438 2.78678C5.01512 2.76168 4.93251 2.74877 4.84938 2.7485H2.11719C1.89963 2.7485 1.69098 2.83492 1.53714 2.98876C1.3833 3.1426 1.29688 3.35125 1.29688 3.56881V9.58225C1.29659 9.97742 1.37418 10.3688 1.5252 10.734C1.67623 11.0991 1.89774 11.431 2.17707 11.7105C2.4564 11.99 2.78808 12.2118 3.15314 12.3631C3.51821 12.5144 3.90951 12.5922 4.30469 12.5922H4.57813V12.5879H4.58906C4.77437 12.5882 4.9567 12.5413 5.11888 12.4516C5.28105 12.362 5.41773 12.2325 5.51604 12.0754C5.61435 11.9183 5.67106 11.7388 5.68081 11.5538C5.69056 11.3687 5.65304 11.1842 5.57178 11.0177C5.49053 10.8511 5.36821 10.708 5.21636 10.6018C5.0645 10.4956 4.88811 10.4298 4.7038 10.4106C4.51949 10.3914 4.33332 10.4195 4.16285 10.4921C3.99237 10.5648 3.8432 10.6796 3.72938 10.8258C3.49252 10.716 3.29207 10.5406 3.15174 10.3204C3.01142 10.1002 2.93707 9.84444 2.9375 9.58334V9.311H3.75563C4.17125 9.311 4.55734 9.17756 4.87125 8.95225C5.50386 9.95518 6.44532 10.7253 7.55373 11.1466C8.66215 11.5679 9.87747 11.6175 11.0165 11.288C12.1556 10.9585 13.1567 10.2676 13.869 9.31959C14.5812 8.37156 14.9661 7.21771 14.9655 6.03193ZM4.02797 5.916C4.02637 5.99328 4.02637 6.07059 4.02797 6.14787V7.39584C4.02797 7.46836 3.99916 7.53791 3.94788 7.58919C3.8966 7.64047 3.82705 7.66928 3.75453 7.66928H2.9375V4.39022H4.02906V5.916H4.02797Z" fill="#808080"/>
</svg>
