<svg width="23" height="19" viewBox="0 0 23 19" fill="none" xmlns="http://www.w3.org/2000/svg">
<path fill-rule="evenodd" clip-rule="evenodd" d="M2.07143 3.5C2.4882 3.5 2.8879 3.34196 3.1826 3.06066C3.4773 2.77936 3.64286 2.39782 3.64286 2C3.64286 1.60218 3.4773 1.22064 3.1826 0.93934C2.8879 0.658035 2.4882 0.5 2.07143 0.5C1.65466 0.5 1.25496 0.658035 0.960261 0.93934C0.665561 1.22064 0.5 1.60218 0.5 2C0.5 2.39782 0.665561 2.77936 0.960261 3.06066C1.25496 3.34196 1.65466 3.5 2.07143 3.5ZM7.96429 1.25C7.65171 1.25 7.35193 1.36853 7.13091 1.5795C6.90988 1.79048 6.78571 2.07663 6.78571 2.375C6.78571 2.67337 6.90988 2.95952 7.13091 3.1705C7.35193 3.38147 7.65171 3.5 7.96429 3.5H21.3214C21.634 3.5 21.9338 3.38147 22.1548 3.1705C22.3758 2.95952 22.5 2.67337 22.5 2.375C22.5 2.07663 22.3758 1.79048 22.1548 1.5795C21.9338 1.36853 21.634 1.25 21.3214 1.25H7.96429ZM7.96429 8.75C7.65171 8.75 7.35193 8.86853 7.13091 9.0795C6.90988 9.29048 6.78571 9.57663 6.78571 9.875C6.78571 10.1734 6.90988 10.4595 7.13091 10.6705C7.35193 10.8815 7.65171 11 7.96429 11H21.3214C21.634 11 21.9338 10.8815 22.1548 10.6705C22.3758 10.4595 22.5 10.1734 22.5 9.875C22.5 9.57663 22.3758 9.29048 22.1548 9.0795C21.9338 8.86853 21.634 8.75 21.3214 8.75H7.96429ZM7.96429 16.25C7.65171 16.25 7.35193 16.3685 7.13091 16.5795C6.90988 16.7905 6.78571 17.0766 6.78571 17.375C6.78571 17.6734 6.90988 17.9595 7.13091 18.1705C7.35193 18.3815 7.65171 18.5 7.96429 18.5H21.3214C21.634 18.5 21.9338 18.3815 22.1548 18.1705C22.3758 17.9595 22.5 17.6734 22.5 17.375C22.5 17.0766 22.3758 16.7905 22.1548 16.5795C21.9338 16.3685 21.634 16.25 21.3214 16.25H7.96429ZM3.64286 9.5C3.64286 9.89782 3.4773 10.2794 3.1826 10.5607C2.8879 10.842 2.4882 11 2.07143 11C1.65466 11 1.25496 10.842 0.960261 10.5607C0.665561 10.2794 0.5 9.89782 0.5 9.5C0.5 9.10218 0.665561 8.72064 0.960261 8.43934C1.25496 8.15804 1.65466 8 2.07143 8C2.4882 8 2.8879 8.15804 3.1826 8.43934C3.4773 8.72064 3.64286 9.10218 3.64286 9.5ZM2.07143 18.5C2.4882 18.5 2.8879 18.342 3.1826 18.0607C3.4773 17.7794 3.64286 17.3978 3.64286 17C3.64286 16.6022 3.4773 16.2206 3.1826 15.9393C2.8879 15.658 2.4882 15.5 2.07143 15.5C1.65466 15.5 1.25496 15.658 0.960261 15.9393C0.665561 16.2206 0.5 16.6022 0.5 17C0.5 17.3978 0.665561 17.7794 0.960261 18.0607C1.25496 18.342 1.65466 18.5 2.07143 18.5Z" fill="#808080"/>
</svg>
