<svg width="23" height="23" viewBox="0 0 23 23" fill="none" xmlns="http://www.w3.org/2000/svg">
<path fill-rule="evenodd" clip-rule="evenodd" d="M2.07143 3.25C2.07143 2.52065 2.40255 1.82118 2.99195 1.30546C3.58135 0.789731 4.38075 0.5 5.21429 0.5H17.7857C18.6193 0.5 19.4186 0.789731 20.008 1.30546C20.5974 1.82118 20.9286 2.52065 20.9286 3.25V19.75C21.3453 19.75 21.745 19.8949 22.0397 20.1527C22.3344 20.4106 22.5 20.7603 22.5 21.125C22.5 21.4897 22.3344 21.8394 22.0397 22.0973C21.745 22.3551 21.3453 22.5 20.9286 22.5H16.2143C15.7975 22.5 15.3978 22.3551 15.1031 22.0973C14.8084 21.8394 14.6429 21.4897 14.6429 21.125V18.375C14.6429 18.0103 14.4773 17.6606 14.1826 17.4027C13.8879 17.1449 13.4882 17 13.0714 17H9.92857C9.5118 17 9.1121 17.1449 8.8174 17.4027C8.5227 17.6606 8.35714 18.0103 8.35714 18.375V21.125C8.35714 21.4897 8.19158 21.8394 7.89688 22.0973C7.60218 22.3551 7.20248 22.5 6.78571 22.5H2.07143C1.65466 22.5 1.25496 22.3551 0.960261 22.0973C0.665561 21.8394 0.5 21.4897 0.5 21.125C0.5 20.7603 0.665561 20.4106 0.960261 20.1527C1.25496 19.8949 1.65466 19.75 2.07143 19.75V3.25ZM6.78571 4.625H9.92857V7.375H6.78571V4.625ZM9.92857 10.125H6.78571V12.875H9.92857V10.125ZM13.0714 4.625H16.2143V7.375H13.0714V4.625ZM16.2143 10.125H13.0714V12.875H16.2143V10.125Z" fill="#808080"/>
</svg>
