<svg width="21" height="21" viewBox="0 0 21 21" fill="none" xmlns="http://www.w3.org/2000/svg">
<path d="M1.83333 11.5833H8.33333C8.92917 11.5833 9.41667 11.0958 9.41667 10.5V1.83333C9.41667 1.2375 8.92917 0.75 8.33333 0.75H1.83333C1.2375 0.75 0.75 1.2375 0.75 1.83333V10.5C0.75 11.0958 1.2375 11.5833 1.83333 11.5833ZM1.83333 20.25H8.33333C8.92917 20.25 9.41667 19.7625 9.41667 19.1667V14.8333C9.41667 14.2375 8.92917 13.75 8.33333 13.75H1.83333C1.2375 13.75 0.75 14.2375 0.75 14.8333V19.1667C0.75 19.7625 1.2375 20.25 1.83333 20.25ZM12.6667 20.25H19.1667C19.7625 20.25 20.25 19.7625 20.25 19.1667V10.5C20.25 9.90417 19.7625 9.41667 19.1667 9.41667H12.6667C12.0708 9.41667 11.5833 9.90417 11.5833 10.5V19.1667C11.5833 19.7625 12.0708 20.25 12.6667 20.25ZM11.5833 1.83333V6.16667C11.5833 6.7625 12.0708 7.25 12.6667 7.25H19.1667C19.7625 7.25 20.25 6.7625 20.25 6.16667V1.83333C20.25 1.2375 19.7625 0.75 19.1667 0.75H12.6667C12.0708 0.75 11.5833 1.2375 11.5833 1.83333Z" fill="#808080"/>
</svg>
