<svg width="25" height="25" viewBox="0 0 25 25" fill="none" xmlns="http://www.w3.org/2000/svg">
<path d="M23.5859 13.5391L14.7266 17.9688C14.1016 18.2812 13.3594 18.4375 12.5 18.4375C11.6406 18.4375 10.8984 18.2812 10.2734 17.9688L1.41406 13.5391C0.804688 13.2266 0.5 12.8555 0.5 12.4258C0.5 11.9961 0.804688 11.6328 1.41406 11.3359L3.71094 10.1875L10.2734 13.4688C10.8984 13.7812 11.6406 13.9375 12.5 13.9375C13.3594 13.9375 14.1016 13.7812 14.7266 13.4688L21.2891 10.1875L23.5859 11.3359C24.1953 11.6328 24.5 12 24.5 12.4375C24.5 12.875 24.1953 13.2422 23.5859 13.5391ZM23.5859 7.53906L14.7266 11.9688C14.1016 12.2812 13.3594 12.4375 12.5 12.4375C11.6406 12.4375 10.8984 12.2812 10.2734 11.9688L1.41406 7.53906C0.804688 7.22656 0.5 6.85547 0.5 6.42578C0.5 5.99609 0.804688 5.625 1.41406 5.3125L10.2734 0.882812C10.8984 0.585937 11.6406 0.4375 12.5 0.4375C13.3594 0.4375 14.1016 0.585937 14.7266 0.882812L23.5859 5.3125C24.1953 5.625 24.5 5.99609 24.5 6.42578C24.5 6.85547 24.1953 7.22656 23.5859 7.53906ZM12.5 1.9375L2 6.4375L12.5 10.9375L23 6.4375L12.5 1.9375ZM1.41406 17.3359L3.71094 16.1875L5.35156 17.0078L2 18.4375L12.5 22.9375L23 18.4375L19.6484 17.0078L21.2891 16.1875L23.5859 17.3359C24.1953 17.6328 24.5 18 24.5 18.4375C24.5 18.875 24.1953 19.2422 23.5859 19.5391L14.7266 23.9688C14.1016 24.2812 13.3594 24.4375 12.5 24.4375C11.6406 24.4375 10.8984 24.2812 10.2734 23.9688L1.41406 19.5391C0.804688 19.2422 0.5 18.875 0.5 18.4375C0.5 18 0.804688 17.6328 1.41406 17.3359Z" fill="#808080"/>
</svg>
