<svg width="14" height="13" viewBox="0 0 14 13" fill="none" xmlns="http://www.w3.org/2000/svg">
<path d="M13.9655 6.03193C13.9656 4.88017 13.6021 3.75776 12.9268 2.82474C12.2515 1.89173 11.2988 1.19575 10.2047 0.836044C9.11051 0.476337 7.93071 0.471265 6.8335 0.821554C5.73629 1.17184 4.77769 1.85961 4.09438 2.78678C4.01512 2.76168 3.93251 2.74877 3.84938 2.7485H1.11719C0.899628 2.7485 0.690978 2.83492 0.53714 2.98876C0.383301 3.1426 0.296876 3.35125 0.296876 3.56881V9.58225C0.296588 9.97742 0.374176 10.3688 0.525204 10.734C0.676232 11.0991 0.89774 11.431 1.17707 11.7105C1.4564 11.99 1.78808 12.2118 2.15314 12.3631C2.51821 12.5144 2.90951 12.5922 3.30469 12.5922H3.57813V12.5879H3.58906C3.77437 12.5882 3.9567 12.5413 4.11888 12.4516C4.28105 12.362 4.41773 12.2325 4.51604 12.0754C4.61435 11.9183 4.67106 11.7388 4.68081 11.5538C4.69056 11.3687 4.65304 11.1842 4.57178 11.0177C4.49053 10.8511 4.36821 10.708 4.21636 10.6018C4.0645 10.4956 3.88811 10.4298 3.7038 10.4106C3.51949 10.3914 3.33332 10.4195 3.16285 10.4921C2.99237 10.5648 2.8432 10.6796 2.72938 10.8258C2.49252 10.716 2.29207 10.5406 2.15174 10.3204C2.01142 10.1002 1.93707 9.84444 1.9375 9.58334V9.311H2.75563C3.17125 9.311 3.55734 9.17756 3.87125 8.95225C4.50386 9.95518 5.44532 10.7253 6.55373 11.1466C7.66215 11.5679 8.87747 11.6175 10.0165 11.288C11.1556 10.9585 12.1567 10.2676 12.869 9.31959C13.5812 8.37156 13.9661 7.21771 13.9655 6.03193ZM3.02797 5.916C3.02637 5.99328 3.02637 6.07059 3.02797 6.14787V7.39584C3.02797 7.46836 2.99916 7.53791 2.94788 7.58919C2.8966 7.64047 2.82705 7.66928 2.75453 7.66928H1.9375V4.39022H3.02906V5.916H3.02797Z" fill="#808080"/>
</svg>
