<svg width="24" height="17" viewBox="0 0 24 17" fill="none" xmlns="http://www.w3.org/2000/svg">
<path d="M19.3182 10.625V2.125C19.3182 0.95625 18.3773 0 17.2273 0H2.59091C1.44091 0 0.5 0.95625 0.5 2.125V10.625C0.5 11.7937 1.44091 12.75 2.59091 12.75H17.2273C18.3773 12.75 19.3182 11.7937 19.3182 10.625ZM9.90909 9.5625C8.17364 9.5625 6.77273 8.13875 6.77273 6.375C6.77273 4.61125 8.17364 3.1875 9.90909 3.1875C11.6445 3.1875 13.0455 4.61125 13.0455 6.375C13.0455 8.13875 11.6445 9.5625 9.90909 9.5625ZM23.5 3.1875V14.875C23.5 16.0438 22.5591 17 21.4091 17H3.63636V14.875H21.4091V3.1875H23.5Z" fill="#808080"/>
</svg>
