<svg width="21" height="21" viewBox="0 0 21 21" fill="none" xmlns="http://www.w3.org/2000/svg">
<path d="M20.5019 8.79751L19.7033 6.25001C19.6171 5.95559 19.4724 5.68155 19.278 5.44424C19.0836 5.20692 18.8433 5.0112 18.5716 4.86874C18.2999 4.72628 18.0023 4.64001 17.6965 4.61506C17.3907 4.59011 17.0831 4.627 16.7919 4.72353L16.4481 4.83473C16.1789 4.92374 15.8921 4.94632 15.6122 4.90056C15.3323 4.85479 15.0677 4.74203 14.8408 4.5719L14.7296 4.49102C14.5082 4.32157 14.3297 4.10245 14.2086 3.85135C14.0874 3.60024 14.0269 3.32418 14.0321 3.04542V2.76236C14.037 2.12754 13.7897 1.51671 13.3446 1.06403C13.1329 0.850174 12.8811 0.680249 12.6035 0.564016C12.3259 0.447782 12.0281 0.38753 11.7272 0.386719H9.14936C8.53086 0.394711 7.94056 0.646718 7.50698 1.08787C7.0734 1.52902 6.83165 2.1236 6.83437 2.74215V2.98476C6.8334 3.2782 6.76659 3.56769 6.63887 3.83187C6.51115 4.09606 6.32577 4.32822 6.0964 4.51124L5.96498 4.61233C5.71159 4.80402 5.41522 4.93093 5.10162 4.98202C4.78802 5.03311 4.46669 5.00684 4.16556 4.9055C3.88899 4.80979 3.59588 4.77119 3.30396 4.79205C3.01204 4.8129 2.72739 4.89276 2.46723 5.02681C2.19636 5.16125 1.95605 5.34999 1.76127 5.5813C1.56648 5.8126 1.42138 6.08152 1.335 6.37132L0.506056 8.99969C0.313823 9.59229 0.363122 10.2368 0.643246 10.7933C0.923371 11.3497 1.4117 11.7732 2.00221 11.9718H2.16395C2.43635 12.0739 2.68084 12.2387 2.87756 12.453C3.07429 12.6673 3.21771 12.925 3.29618 13.2051L3.35683 13.3668C3.46952 13.6763 3.50721 14.0081 3.46679 14.335C3.42637 14.6618 3.309 14.9744 3.12432 15.2471C2.7505 15.7562 2.59282 16.3923 2.68559 17.0171C2.77835 17.6418 3.11406 18.2046 3.61967 18.5831L5.71226 20.1703C6.10849 20.4584 6.58714 20.6108 7.07699 20.605C7.20809 20.6178 7.34014 20.6178 7.47124 20.605C7.77462 20.5462 8.06285 20.4263 8.31835 20.2525C8.57384 20.0787 8.79125 19.8547 8.95729 19.5941L9.1898 19.2605C9.3529 19.0265 9.56871 18.8342 9.81982 18.6989C10.0709 18.5637 10.3503 18.4894 10.6354 18.4821C10.9342 18.4747 11.23 18.5432 11.4951 18.681C11.7603 18.8189 11.9862 19.0217 12.1518 19.2706L12.2731 19.4424C12.4454 19.6989 12.6685 19.9174 12.9285 20.0845C13.1885 20.2516 13.4799 20.3637 13.7848 20.4139C14.0898 20.464 14.4018 20.4513 14.7016 20.3764C15.0014 20.3014 15.2827 20.1659 15.5282 19.9782L17.5804 18.4416C18.0656 18.0648 18.3883 17.5166 18.4822 16.9095C18.5762 16.3024 18.4344 15.6823 18.0858 15.1764L17.823 14.7922C17.6649 14.548 17.5614 14.2726 17.5196 13.9847C17.4777 13.6968 17.4984 13.4033 17.5804 13.1242C17.6639 12.8254 17.8189 12.5515 18.032 12.326C18.2451 12.1006 18.51 11.9304 18.8036 11.8302L19.0058 11.7595C19.5908 11.5565 20.074 11.134 20.3532 10.5812C20.6323 10.0285 20.6857 9.38886 20.5019 8.79751ZM10.504 14.034C9.80419 14.034 9.12012 13.8265 8.53827 13.4377C7.95641 13.049 7.50291 12.4964 7.23512 11.8499C6.96732 11.2033 6.89725 10.4919 7.03377 9.80558C7.1703 9.11924 7.50728 8.48879 8.0021 7.99396C8.49693 7.49914 9.12737 7.16216 9.81371 7.02564C10.5001 6.88911 11.2115 6.95918 11.858 7.22698C12.5045 7.49478 13.0571 7.94828 13.4459 8.53013C13.8347 9.11198 14.0422 9.79606 14.0422 10.4958C14.0422 11.4342 13.6694 12.3342 13.0059 12.9977C12.3423 13.6613 11.4424 14.034 10.504 14.034Z" fill="#808080"/>
</svg>
