<svg width="24" height="24" viewBox="0 0 24 24" fill="none" xmlns="http://www.w3.org/2000/svg">
<path d="M15.7793 1.84375H4.5293L1.9043 5.59375H18.4043L15.7793 1.84375Z" fill="#EAEAEA"/>
<path d="M14.6543 15.3437C14.6543 17.32 15.9405 19.2963 17.0055 20.5938H1.9043V5.59375H18.4043V11.5938C17.4097 11.5938 16.4559 11.9888 15.7526 12.6921C15.0494 13.3954 14.6543 14.3492 14.6543 15.3437Z" fill="#D3D2D1"/>
<path d="M12.0293 5.59375H8.2793V8.59375H12.0293V5.59375Z" fill="#9E9E9E"/>
<path d="M8.2793 5.59375H12.0293L11.2793 1.84375H9.0293L8.2793 5.59375Z" fill="#9E9E9E"/>
<path d="M7.1543 19.1237H4.1543C4.05484 19.1237 3.95946 19.0842 3.88913 19.0139C3.81881 18.9436 3.7793 18.8482 3.7793 18.7487C3.7793 18.6493 3.81881 18.5539 3.88913 18.4836C3.95946 18.4133 4.05484 18.3737 4.1543 18.3737H7.1543C7.25375 18.3737 7.34914 18.4133 7.41946 18.4836C7.48979 18.5539 7.5293 18.6493 7.5293 18.7487C7.5293 18.8482 7.48979 18.9436 7.41946 19.0139C7.34914 19.0842 7.25375 19.1237 7.1543 19.1237ZM7.1543 17.2487H4.1543C4.05484 17.2487 3.95946 17.2092 3.88913 17.1389C3.81881 17.0686 3.7793 16.9732 3.7793 16.8737C3.7793 16.7743 3.81881 16.6789 3.88913 16.6086C3.95946 16.5383 4.05484 16.4987 4.1543 16.4987H7.1543C7.25375 16.4987 7.34914 16.5383 7.41946 16.6086C7.48979 16.6789 7.5293 16.7743 7.5293 16.8737C7.5293 16.9732 7.48979 17.0686 7.41946 17.1389C7.34914 17.2092 7.25375 17.2487 7.1543 17.2487ZM22.1543 15.3437C22.1543 18.7187 18.4043 22.0937 18.4043 22.0937C17.9047 21.626 17.4373 21.1248 17.0055 20.5937C15.9405 19.2962 14.6543 17.32 14.6543 15.3437C14.6543 14.3492 15.0494 13.3954 15.7526 12.6921C16.4559 11.9888 17.4097 11.5938 18.4043 11.5938C19.3989 11.5938 20.3527 11.9888 21.0559 12.6921C21.7592 13.3954 22.1543 14.3492 22.1543 15.3437Z" fill="#053582"/>
<path d="M18.4055 16.815C19.2174 16.815 19.8755 16.1569 19.8755 15.345C19.8755 14.5331 19.2174 13.875 18.4055 13.875C17.5937 13.875 16.9355 14.5331 16.9355 15.345C16.9355 16.1569 17.5937 16.815 18.4055 16.815Z" fill="#407BFF"/>
<path d="M13.1253 6H1.87534C1.80648 6.00014 1.73891 5.98132 1.68004 5.9456C1.62117 5.90988 1.57327 5.85864 1.54159 5.7975C1.51258 5.73821 1.49972 5.67232 1.50433 5.60647C1.50894 5.54063 1.53085 5.47717 1.56784 5.4225L4.19284 1.6725C4.22603 1.62074 4.27143 1.57794 4.32505 1.54786C4.37868 1.51778 4.43887 1.50134 4.50034 1.5H5.62534C5.7248 1.5 5.82018 1.53951 5.89051 1.60984C5.96083 1.68016 6.00034 1.77554 6.00034 1.875C6.00034 1.97446 5.96083 2.06984 5.89051 2.14016C5.82018 2.21049 5.7248 2.25 5.62534 2.25H4.69534L2.59534 5.25H13.1253C13.2248 5.25 13.3202 5.28951 13.3905 5.35983C13.4608 5.43016 13.5003 5.52554 13.5003 5.625C13.5003 5.72446 13.4608 5.81984 13.3905 5.89016C13.3202 5.96049 13.2248 6 13.1253 6Z" fill="#053582"/>
<path d="M18.375 6H14.625C14.5255 6 14.4302 5.96049 14.3598 5.89016C14.2895 5.81984 14.25 5.72446 14.25 5.625C14.25 5.52554 14.2895 5.43016 14.3598 5.35984C14.4302 5.28951 14.5255 5.25 14.625 5.25H17.655L15.555 2.25H7.125C7.02554 2.25 6.93016 2.21049 6.85983 2.14016C6.78951 2.06984 6.75 1.97446 6.75 1.875C6.75 1.77554 6.78951 1.68016 6.85983 1.60984C6.93016 1.53951 7.02554 1.5 7.125 1.5H15.75C15.8105 1.5001 15.87 1.51481 15.9235 1.54289C15.9771 1.57097 16.023 1.61158 16.0575 1.66125L18.6825 5.41125C18.7195 5.46592 18.7414 5.52938 18.746 5.59522C18.7506 5.66107 18.7378 5.72696 18.7087 5.78625C18.6786 5.84949 18.6314 5.90304 18.5724 5.94082C18.5134 5.9786 18.445 5.9991 18.375 6ZM12 9H8.25C8.15054 9 8.05516 8.96049 7.98483 8.89017C7.91451 8.81984 7.875 8.72446 7.875 8.625V5.625C7.875 5.52554 7.91451 5.43016 7.98483 5.35984C8.05516 5.28951 8.15054 5.25 8.25 5.25H12C12.0995 5.25 12.1948 5.28951 12.2652 5.35984C12.3355 5.43016 12.375 5.52554 12.375 5.625V8.625C12.375 8.72446 12.3355 8.81984 12.2652 8.89017C12.1948 8.96049 12.0995 9 12 9ZM8.625 8.25H11.625V6H8.625V8.25Z" fill="#053582"/>
<path d="M12 6.00008H8.25C8.19461 5.99971 8.13999 5.98708 8.09006 5.96309C8.04014 5.9391 7.99614 5.90434 7.96125 5.86133C7.92459 5.81915 7.89782 5.76931 7.8829 5.71546C7.86798 5.66161 7.86528 5.6051 7.875 5.55008L8.625 1.80008C8.64253 1.7141 8.68966 1.63699 8.75818 1.58217C8.8267 1.52736 8.91227 1.49831 9 1.50008H11.25C11.3377 1.49831 11.4233 1.52736 11.4918 1.58217C11.5603 1.63699 11.6075 1.7141 11.625 1.80008L12.375 5.55008C12.3857 5.60455 12.3842 5.66073 12.3706 5.71455C12.357 5.76838 12.3316 5.81851 12.2963 5.86133C12.2606 5.90533 12.2154 5.94068 12.1641 5.96471C12.1127 5.98874 12.0567 6.00083 12 6.00008ZM8.7075 5.25008H11.5425L10.9425 2.25008H9.3075L8.7075 5.25008ZM16.9762 21.0001H1.875C1.77554 21.0001 1.68016 20.9606 1.60984 20.8902C1.53951 20.8199 1.5 20.7245 1.5 20.6251V19.5001C1.5 19.4006 1.53951 19.3052 1.60984 19.2349C1.68016 19.1646 1.77554 19.1251 1.875 19.1251C1.97446 19.1251 2.06984 19.1646 2.14016 19.2349C2.21049 19.3052 2.25 19.4006 2.25 19.5001V20.2501H16.2075C15.2288 18.9301 14.25 17.1638 14.25 15.3751C14.2457 14.343 14.6285 13.3469 15.3227 12.5832C16.0169 11.8196 16.9722 11.3439 18 11.2501V6.00008H14.625C14.5255 6.00008 14.4302 5.96057 14.3598 5.89024C14.2895 5.81991 14.25 5.72453 14.25 5.62508C14.25 5.52562 14.2895 5.43024 14.3598 5.35991C14.4302 5.28959 14.5255 5.25008 14.625 5.25008H18.375C18.4745 5.25008 18.5698 5.28959 18.6402 5.35991C18.7105 5.43024 18.75 5.52562 18.75 5.62508V11.6251C18.75 11.7245 18.7105 11.8199 18.6402 11.8902C18.5698 11.9606 18.4745 12.0001 18.375 12.0001C17.4799 12.0001 16.6215 12.3557 15.9885 12.9886C15.3556 13.6215 15 14.48 15 15.3751C15 17.2501 16.2338 19.1251 17.25 20.3888C17.2938 20.4427 17.3218 20.5077 17.3309 20.5765C17.34 20.6454 17.3297 20.7154 17.3013 20.7787C17.273 20.8421 17.2275 20.8964 17.1701 20.9354C17.1127 20.9745 17.0456 20.9969 16.9762 21.0001Z" fill="#053582"/>
<path d="M1.875 16.5C1.77554 16.5 1.68016 16.4605 1.60984 16.3902C1.53951 16.3198 1.5 16.2245 1.5 16.125V5.625C1.5 5.52554 1.53951 5.43016 1.60984 5.35984C1.68016 5.28951 1.77554 5.25 1.875 5.25H13.125C13.2245 5.25 13.3198 5.28951 13.3902 5.35984C13.4605 5.43016 13.5 5.52554 13.5 5.625C13.5 5.72446 13.4605 5.81984 13.3902 5.89016C13.3198 5.96049 13.2245 6 13.125 6H2.25V16.125C2.25 16.2245 2.21049 16.3198 2.14016 16.3902C2.06984 16.4605 1.97446 16.5 1.875 16.5ZM1.875 18.375C1.77554 18.375 1.68016 18.3355 1.60984 18.2652C1.53951 18.1948 1.5 18.0995 1.5 18V17.625C1.5 17.5255 1.53951 17.4302 1.60984 17.3598C1.68016 17.2895 1.77554 17.25 1.875 17.25C1.97446 17.25 2.06984 17.2895 2.14016 17.3598C2.21049 17.4302 2.25 17.5255 2.25 17.625V18C2.25 18.0995 2.21049 18.1948 2.14016 18.2652C2.06984 18.3355 1.97446 18.375 1.875 18.375ZM18.375 22.5C18.2821 22.4998 18.1925 22.465 18.1238 22.4025C17.6098 21.9227 17.1299 21.4077 16.6875 20.8613C15.5737 19.5 14.25 17.4563 14.25 15.375C14.25 14.281 14.6846 13.2318 15.4582 12.4582C16.2318 11.6846 17.281 11.25 18.375 11.25C19.469 11.25 20.5182 11.6846 21.2918 12.4582C22.0654 13.2318 22.5 14.281 22.5 15.375C22.4464 16.6811 22.0465 17.9494 21.3412 19.05C21.3196 19.0978 21.2882 19.1406 21.2491 19.1755C21.2099 19.2104 21.1638 19.2367 21.1139 19.2527C21.0639 19.2687 21.0111 19.274 20.959 19.2684C20.9068 19.2627 20.8564 19.2461 20.811 19.2198C20.7657 19.1934 20.7264 19.1578 20.6956 19.1153C20.6649 19.0727 20.6434 19.0242 20.6326 18.9729C20.6218 18.9215 20.6218 18.8685 20.6328 18.8172C20.6438 18.7659 20.6654 18.7174 20.6962 18.675C21.3318 17.6869 21.6953 16.5486 21.75 15.375C21.75 14.4799 21.3944 13.6215 20.7615 12.9885C20.1285 12.3556 19.2701 12 18.375 12C17.4799 12 16.6215 12.3556 15.9885 12.9885C15.3556 13.6215 15 14.4799 15 15.375C15 17.25 16.2337 19.125 17.25 20.3887C17.7 20.9325 18.1088 21.36 18.375 21.6075C18.9151 21.0659 19.4163 20.487 19.875 19.875C19.9347 19.7954 20.0235 19.7428 20.122 19.7288C20.2204 19.7147 20.3204 19.7403 20.4 19.8C20.4796 19.8597 20.5322 19.9485 20.5462 20.047C20.5603 20.1454 20.5347 20.2454 20.475 20.325C19.9188 21.0698 19.2976 21.7638 18.6188 22.3987C18.5525 22.4609 18.4658 22.4969 18.375 22.5Z" fill="#053582"/>
<path d="M18.375 17.2489C17.8777 17.2489 17.4008 17.0513 17.0492 16.6997C16.6975 16.3481 16.5 15.8712 16.5 15.3739C16.5006 15.0835 16.5686 14.7972 16.6987 14.5376C16.7186 14.49 16.748 14.447 16.7852 14.4113C16.8224 14.3756 16.8666 14.3479 16.9149 14.3301C16.9633 14.3122 17.0148 14.3045 17.0663 14.3074C17.1178 14.3103 17.1681 14.3239 17.2141 14.3471C17.2602 14.3704 17.3009 14.4029 17.3338 14.4426C17.3667 14.4824 17.391 14.5284 17.4053 14.578C17.4196 14.6275 17.4235 14.6795 17.4167 14.7306C17.41 14.7818 17.3928 14.831 17.3663 14.8751C17.2578 15.0943 17.2238 15.3429 17.2693 15.5832C17.3148 15.8234 17.4373 16.0423 17.6184 16.2067C17.7994 16.3711 18.0291 16.4721 18.2726 16.4943C18.5161 16.5164 18.7603 16.4587 18.968 16.3297C19.1758 16.2007 19.3359 16.0075 19.424 15.7794C19.5122 15.5513 19.5236 15.3007 19.4566 15.0655C19.3895 14.8304 19.2477 14.6234 19.0526 14.4761C18.8574 14.3287 18.6195 14.249 18.375 14.2489H18.3187C18.2193 14.2598 18.1196 14.2308 18.0415 14.1682C17.9634 14.1056 17.9134 14.0146 17.9025 13.9151C17.8916 13.8157 17.9206 13.716 17.9832 13.6379C18.0458 13.5598 18.1368 13.5098 18.2363 13.4989C18.2824 13.4952 18.3288 13.4952 18.375 13.4989C18.8723 13.4989 19.3492 13.6964 19.7008 14.0481C20.0525 14.3997 20.25 14.8766 20.25 15.3739C20.25 15.8712 20.0525 16.3481 19.7008 16.6997C19.3492 17.0513 18.8723 17.2489 18.375 17.2489Z" fill="#053582"/>
</svg>
