<svg width="12" height="14" viewBox="0 0 12 14" fill="none" xmlns="http://www.w3.org/2000/svg">
<path d="M10.739 0.90625H8.71875V1.34375H10.2896C10.3171 1.34222 10.3446 1.34639 10.3703 1.356C10.3961 1.3656 10.4196 1.38044 10.4394 1.39957C10.4591 1.4187 10.4747 1.44171 10.4852 1.46716C10.4956 1.49261 10.5006 1.51994 10.5 1.54744V12.2991C10.5 12.4199 10.4104 12.5312 10.2896 12.5312H1.71038C1.58957 12.5312 1.5 12.4199 1.5 12.2991V1.54744C1.49936 1.51994 1.50442 1.49261 1.51485 1.46716C1.52528 1.44171 1.54087 1.4187 1.56063 1.39957C1.58039 1.38044 1.6039 1.3656 1.62967 1.356C1.65544 1.34639 1.68292 1.34222 1.71038 1.34375H3.3125V0.90625H1.261C1.16603 0.907982 1.07556 0.947043 1.00917 1.01498C0.942774 1.08291 0.905803 1.17426 0.906254 1.26925V12.7505C0.906418 12.7965 0.915791 12.842 0.933822 12.8843C0.951852 12.9267 0.978175 12.965 1.01124 12.9969C1.0443 13.0289 1.08343 13.054 1.12633 13.0706C1.16923 13.0872 1.21502 13.0951 1.261 13.0938H10.7391C10.7851 13.0951 10.8309 13.0872 10.8738 13.0706C10.9167 13.0539 10.9558 13.0289 10.9888 12.9969C11.0219 12.9649 11.0482 12.9266 11.0662 12.8843C11.0842 12.842 11.0936 12.7965 11.0938 12.7505V1.26922C11.0942 1.17423 11.0572 1.0829 10.9908 1.01497C10.9244 0.947038 10.834 0.907982 10.739 0.90625Z" fill="black"/>
</svg>
