<svg width="17" height="16" viewBox="0 0 17 16" fill="none" xmlns="http://www.w3.org/2000/svg">
<path d="M4.14551 4.91911C3.44092 4.91911 2.87092 4.34911 2.87092 3.64453C2.87092 3.30649 3.00521 2.9823 3.24424 2.74326C3.48327 2.50423 3.80747 2.36995 4.14551 2.36995C4.85009 2.36995 5.42009 2.93995 5.42009 3.64453C5.42009 3.98257 5.28581 4.30677 5.04677 4.5458C4.80774 4.78483 4.48355 4.91911 4.14551 4.91911ZM4.14551 0.0820312C2.16634 0.0820312 0.583008 1.66536 0.583008 3.64453C0.583008 6.31245 4.14551 10.2629 4.14551 10.2629C4.14551 10.2629 7.70801 6.31245 7.70801 3.64453C7.70801 1.66536 6.12467 0.0820312 4.14551 0.0820312ZM12.8538 4.91911C12.5158 4.91911 12.1916 4.78483 11.9526 4.5458C11.7135 4.30677 11.5793 3.98257 11.5793 3.64453C11.5793 3.47715 11.6122 3.31141 11.6763 3.15677C11.7403 3.00213 11.8342 2.86162 11.9526 2.74326C12.0709 2.62491 12.2114 2.53102 12.3661 2.46697C12.5207 2.40292 12.6865 2.36995 12.8538 2.36995C13.0212 2.36995 13.187 2.40292 13.3416 2.46697C13.4962 2.53102 13.6368 2.62491 13.7551 2.74326C13.8735 2.86162 13.9674 3.00213 14.0314 3.15677C14.0955 3.31141 14.1284 3.47715 14.1284 3.64453C14.1284 3.98257 13.9941 4.30677 13.7551 4.5458C13.5161 4.78483 13.1919 4.91911 12.8538 4.91911ZM12.8538 0.0820312C10.8747 0.0820313 9.29134 1.66536 9.29134 3.64453C9.29134 6.31245 12.8538 10.2629 12.8538 10.2629C12.8538 10.2629 16.4163 6.31245 16.4163 3.64453C16.4163 1.66536 14.833 0.0820312 12.8538 0.0820312ZM12.8538 11.1654C11.8484 11.1654 10.9538 11.7987 10.6213 12.7487H6.37801C6.16823 12.1562 5.73214 11.671 5.16528 11.3994C4.59842 11.1279 3.94703 11.0921 3.35384 11.2999C3.05901 11.4033 2.78743 11.5637 2.55463 11.772C2.32183 11.9803 2.13237 12.2325 1.99709 12.5141C1.8618 12.7957 1.78335 13.1012 1.7662 13.4131C1.74906 13.7251 1.79357 14.0373 1.89717 14.332C2.10979 14.9261 2.54883 15.4119 3.11841 15.6833C3.68799 15.9548 4.34185 15.9898 4.93717 15.7808C5.61009 15.5433 6.12467 15.0049 6.37801 14.332H10.6293C11.0647 15.567 12.4263 16.2162 13.6455 15.7808C13.9412 15.6785 14.2138 15.5189 14.4477 15.3109C14.6815 15.103 14.8719 14.8509 15.008 14.5692C15.1441 14.2874 15.2232 13.9815 15.2407 13.6691C15.2582 13.3567 15.2138 13.0439 15.1101 12.7487C14.7697 11.7987 13.8672 11.1654 12.8538 11.1654ZM12.8538 14.7279C12.5389 14.7279 12.2369 14.6028 12.0142 14.3801C11.7915 14.1574 11.6663 13.8553 11.6663 13.5404C11.6663 13.2254 11.7915 12.9234 12.0142 12.7007C12.2369 12.478 12.5389 12.3529 12.8538 12.3529C13.1688 12.3529 13.4708 12.478 13.6935 12.7007C13.9162 12.9234 14.0413 13.2254 14.0413 13.5404C14.0413 13.8553 13.9162 14.1574 13.6935 14.3801C13.4708 14.6028 13.1688 14.7279 12.8538 14.7279Z" fill="#A0B1C4"/>
</svg>
