<svg width="12" height="11" viewBox="0 0 12 11" fill="none" xmlns="http://www.w3.org/2000/svg">
<path d="M11 0H0.5C0.224 0 0 0.224 0 0.5V10.5C0 10.776 0.224 11 0.5 11H11C11.276 11 11.5 10.776 11.5 10.5V0.5C11.5 0.224 11.276 0 11 0ZM8.5 4.5C8.5 5.707 7.6395 6.717 6.5 6.9495V8H7C7.276 8 7.5 8.224 7.5 8.5C7.5 8.776 7.276 9 7 9H5C4.724 9 4.5 8.776 4.5 8.5C4.5 8.224 4.724 8 5 8H5.5V6.9495C4.3605 6.717 3.5 5.707 3.5 4.5V2.5C3.5 2.224 3.724 2 4 2H5.793L4.6465 3.1465C4.5035 3.2895 4.4605 3.5045 4.538 3.6915C4.6155 3.878 4.798 4 5 4H5.793L5.1465 4.6465C4.951 4.842 4.951 5.158 5.1465 5.3535C5.342 5.549 5.658 5.549 5.8535 5.3535L7.3535 3.8535C7.4965 3.7105 7.5395 3.4955 7.462 3.3085C7.3845 3.122 7.202 3 7 3H6.207L7.207 2H8C8.276 2 8.5 2.224 8.5 2.5V4.5Z" fill="black"/>
</svg>
