<svg width="12" height="15" viewBox="0 0 12 15" fill="none" xmlns="http://www.w3.org/2000/svg">
<path fill-rule="evenodd" clip-rule="evenodd" d="M6 8.53039C4.57812 8.53039 3.42188 7.48468 3.42188 6.20486C3.42188 4.90943 4.57812 3.87933 6 3.87933C7.42188 3.87933 8.57812 4.92504 8.57812 6.20486C8.57812 7.48468 7.42188 8.53039 6 8.53039ZM0 6.20486C0 10.2784 6 14.7578 6 14.7578C6 14.7578 12 10.2784 12 6.20486C12 3.1926 9.32812 0.757812 6 0.757812C2.67187 0.757812 0 3.1926 0 6.20486C0 6.20486 0 10.2784 0 6.20486ZM1.71875 6.20486C1.71875 4.05101 3.625 2.31857 6 2.31857C8.375 2.31857 10.2812 4.05101 10.2812 6.20486C10.2812 7.65636 9.15625 9.42002 7.67188 11.012C7.09375 11.6519 6.5 12.2138 6 12.6508C5.51562 12.2138 4.90625 11.6519 4.3125 11.012C2.84375 9.40441 1.71875 7.64076 1.71875 6.20486C1.71875 6.20486 1.71875 4.05101 1.71875 6.20486Z" fill="#92929D"/>
</svg>
