<svg width="26" height="32" viewBox="0 0 26 32" fill="none" xmlns="http://www.w3.org/2000/svg">
<g clip-path="url(#clip0_2853_48268)">
<path opacity="0.15" d="M26.0005 16.1819C25.945 13.6138 24.8858 11.1696 23.05 9.373C21.2141 7.5764 18.7476 6.57031 16.1789 6.57031C13.6103 6.57031 11.1438 7.5764 9.30791 9.373C7.47206 11.1696 6.41292 13.6138 6.35742 16.1819V16.6909C6.64177 24.7674 13.9248 31.6009 16.1812 31.6009C18.4377 31.6009 25.7161 24.7674 25.9867 16.6772C25.9959 16.5151 26.0005 16.35 26.0005 16.1819Z" fill="#B76A8A"/>
<path d="M22.7895 12.9709C22.734 10.4029 21.6749 7.95866 19.839 6.16206C18.0032 4.36546 15.5367 3.35937 12.968 3.35938C10.3993 3.35937 7.93282 4.36546 6.09697 6.16206C4.26112 7.95866 3.20198 10.4029 3.14648 12.9709V13.48C3.43083 21.5565 10.7138 28.39 12.9703 28.39C15.2267 28.39 22.5052 21.5564 22.7758 13.4663C22.7849 13.3042 22.7895 13.1391 22.7895 12.9709Z" stroke="#6A80B9" stroke-width="5" stroke-miterlimit="10"/>
<path d="M12.8693 16.1917C14.3612 16.1917 15.5706 14.9823 15.5706 13.4904C15.5706 11.9985 14.3612 10.7891 12.8693 10.7891C11.3774 10.7891 10.168 11.9985 10.168 13.4904C10.168 14.9823 11.3774 16.1917 12.8693 16.1917Z" stroke="#6A80B9" stroke-width="2" stroke-miterlimit="10"/>
</g>
<defs>
<clipPath id="clip0_2853_48268">
<rect width="26" height="32" fill="white"/>
</clipPath>
</defs>
</svg>
