<svg width="102" height="36" viewBox="0 0 102 36" fill="none" xmlns="http://www.w3.org/2000/svg">
<path d="M61.168 20.918H56.8203V18.1758H61.168C61.8398 18.1758 62.3867 18.0664 62.8086 17.8477C63.2305 17.6211 63.5391 17.3086 63.7344 16.9102C63.9297 16.5117 64.0273 16.0625 64.0273 15.5625C64.0273 15.0547 63.9297 14.582 63.7344 14.1445C63.5391 13.707 63.2305 13.3555 62.8086 13.0898C62.3867 12.8242 61.8398 12.6914 61.168 12.6914H58.0391V27H54.5234V9.9375H61.168C62.5039 9.9375 63.6484 10.1797 64.6016 10.6641C65.5625 11.1406 66.2969 11.8008 66.8047 12.6445C67.3125 13.4883 67.5664 14.4531 67.5664 15.5391C67.5664 16.6406 67.3125 17.5938 66.8047 18.3984C66.2969 19.2031 65.5625 19.8242 64.6016 20.2617C63.6484 20.6992 62.5039 20.918 61.168 20.918ZM69.0781 20.7891V20.543C69.0781 19.6133 69.2109 18.7578 69.4766 17.9766C69.7422 17.1875 70.1289 16.5039 70.6367 15.9258C71.1445 15.3477 71.7695 14.8984 72.5117 14.5781C73.2539 14.25 74.1055 14.0859 75.0664 14.0859C76.0273 14.0859 76.8828 14.25 77.6328 14.5781C78.3828 14.8984 79.0117 15.3477 79.5195 15.9258C80.0352 16.5039 80.4258 17.1875 80.6914 17.9766C80.957 18.7578 81.0898 19.6133 81.0898 20.543V20.7891C81.0898 21.7109 80.957 22.5664 80.6914 23.3555C80.4258 24.1367 80.0352 24.8203 79.5195 25.4062C79.0117 25.9844 78.3867 26.4336 77.6445 26.7539C76.9023 27.0742 76.0508 27.2344 75.0898 27.2344C74.1289 27.2344 73.2734 27.0742 72.5234 26.7539C71.7812 26.4336 71.1523 25.9844 70.6367 25.4062C70.1289 24.8203 69.7422 24.1367 69.4766 23.3555C69.2109 22.5664 69.0781 21.7109 69.0781 20.7891ZM72.4531 20.543V20.7891C72.4531 21.3203 72.5 21.8164 72.5938 22.2773C72.6875 22.7383 72.8359 23.1445 73.0391 23.4961C73.25 23.8398 73.5234 24.1094 73.8594 24.3047C74.1953 24.5 74.6055 24.5977 75.0898 24.5977C75.5586 24.5977 75.9609 24.5 76.2969 24.3047C76.6328 24.1094 76.9023 23.8398 77.1055 23.4961C77.3086 23.1445 77.457 22.7383 77.5508 22.2773C77.6523 21.8164 77.7031 21.3203 77.7031 20.7891V20.543C77.7031 20.0273 77.6523 19.543 77.5508 19.0898C77.457 18.6289 77.3047 18.2227 77.0938 17.8711C76.8906 17.5117 76.6211 17.2305 76.2852 17.0273C75.9492 16.8242 75.543 16.7227 75.0664 16.7227C74.5898 16.7227 74.1836 16.8242 73.8477 17.0273C73.5195 17.2305 73.25 17.5117 73.0391 17.8711C72.8359 18.2227 72.6875 18.6289 72.5938 19.0898C72.5 19.543 72.4531 20.0273 72.4531 20.543ZM82.625 20.7891V20.543C82.625 19.6133 82.7578 18.7578 83.0234 17.9766C83.2891 17.1875 83.6758 16.5039 84.1836 15.9258C84.6914 15.3477 85.3164 14.8984 86.0586 14.5781C86.8008 14.25 87.6523 14.0859 88.6133 14.0859C89.5742 14.0859 90.4297 14.25 91.1797 14.5781C91.9297 14.8984 92.5586 15.3477 93.0664 15.9258C93.582 16.5039 93.9727 17.1875 94.2383 17.9766C94.5039 18.7578 94.6367 19.6133 94.6367 20.543V20.7891C94.6367 21.7109 94.5039 22.5664 94.2383 23.3555C93.9727 24.1367 93.582 24.8203 93.0664 25.4062C92.5586 25.9844 91.9336 26.4336 91.1914 26.7539C90.4492 27.0742 89.5977 27.2344 88.6367 27.2344C87.6758 27.2344 86.8203 27.0742 86.0703 26.7539C85.3281 26.4336 84.6992 25.9844 84.1836 25.4062C83.6758 24.8203 83.2891 24.1367 83.0234 23.3555C82.7578 22.5664 82.625 21.7109 82.625 20.7891ZM86 20.543V20.7891C86 21.3203 86.0469 21.8164 86.1406 22.2773C86.2344 22.7383 86.3828 23.1445 86.5859 23.4961C86.7969 23.8398 87.0703 24.1094 87.4062 24.3047C87.7422 24.5 88.1523 24.5977 88.6367 24.5977C89.1055 24.5977 89.5078 24.5 89.8438 24.3047C90.1797 24.1094 90.4492 23.8398 90.6523 23.4961C90.8555 23.1445 91.0039 22.7383 91.0977 22.2773C91.1992 21.8164 91.25 21.3203 91.25 20.7891V20.543C91.25 20.0273 91.1992 19.543 91.0977 19.0898C91.0039 18.6289 90.8516 18.2227 90.6406 17.8711C90.4375 17.5117 90.168 17.2305 89.832 17.0273C89.4961 16.8242 89.0898 16.7227 88.6133 16.7227C88.1367 16.7227 87.7305 16.8242 87.3945 17.0273C87.0664 17.2305 86.7969 17.5117 86.5859 17.8711C86.3828 18.2227 86.2344 18.6289 86.1406 19.0898C86.0469 19.543 86 20.0273 86 20.543ZM100.273 9V27H96.8867V9H100.273Z" fill="#030026"/>
<path fill-rule="evenodd" clip-rule="evenodd" d="M36.4977 18C36.4977 27.9411 28.4388 36 18.4977 36C8.55656 36 0.497681 27.9411 0.497681 18C0.497681 8.05888 8.55656 0 18.4977 0C28.4388 0 36.4977 8.05888 36.4977 18Z" fill="black"/>
<path d="M22.1436 12.9389C23.2524 13.5531 24.1731 14.4368 24.8131 15.5012C25.4531 16.5655 25.7899 17.7729 25.7894 19.0019V27.0019H21.4456C21.2304 27.5874 20.8313 28.0944 20.3033 28.4531C19.7754 28.8117 19.1445 29.0043 18.4977 29.0043C17.8509 29.0043 17.2201 28.8117 16.6921 28.4531C16.1641 28.0944 15.765 27.5874 15.5498 27.0019H11.2061V19.0019C11.2056 17.7729 11.5423 16.5655 12.1823 15.5012C12.8223 14.4368 13.7431 13.5531 14.8519 12.9389C14.6807 12.6437 14.5495 12.3289 14.4613 12.0019H11.2061V10.0019H14.4623C14.694 9.14361 15.216 8.38353 15.9464 7.84092C16.6768 7.29832 17.5742 7.00391 18.4977 7.00391C19.4213 7.00391 20.3187 7.29832 21.049 7.84092C21.7794 8.38353 22.3014 9.14361 22.5331 10.0019H25.7894V12.0019H22.5331C22.4451 12.3286 22.3146 12.6434 22.1446 12.9389H22.1436ZM18.4977 20.0019C18.2215 20.0019 17.9565 20.1072 17.7612 20.2947C17.5658 20.4823 17.4561 20.7366 17.4561 21.0019V26.0019C17.4561 26.2671 17.5658 26.5214 17.7612 26.709C17.9565 26.8965 18.2215 27.0019 18.4977 27.0019C18.774 27.0019 19.0389 26.8965 19.2343 26.709C19.4296 26.5214 19.5394 26.2671 19.5394 26.0019V21.0019C19.5394 20.7366 19.4296 20.4823 19.2343 20.2947C19.0389 20.1072 18.774 20.0019 18.4977 20.0019ZM18.4977 13.0019C19.0503 13.0019 19.5802 12.7911 19.9709 12.4161C20.3616 12.041 20.5811 11.5323 20.5811 11.0019C20.5811 10.4714 20.3616 9.96271 19.9709 9.58764C19.5802 9.21256 19.0503 9.00185 18.4977 9.00185C17.9452 9.00185 17.4153 9.21256 17.0246 9.58764C16.6339 9.96271 16.4144 10.4714 16.4144 11.0019C16.4144 11.5323 16.6339 12.041 17.0246 12.4161C17.4153 12.7911 17.9452 13.0019 18.4977 13.0019Z" fill="white"/>
</svg>
