<svg width="24" height="24" viewBox="0 0 24 24" fill="none" xmlns="http://www.w3.org/2000/svg">
<path d="M21.4651 3.74255L3.08203 7.29688L5.11646 17.819L23.4995 14.2647L21.4651 3.74255Z" fill="#569F7D"/>
<path d="M20.3047 6.62161L1.68164 8.55859L2.79034 19.2181L21.4134 17.2811L20.3047 6.62161Z" fill="#60B18B"/>
<path d="M19.2235 9.53906H0.5V20.2561H19.2235V9.53906Z" fill="#8ED8B5"/>
<path d="M17.5002 17.2382C17.102 17.2391 16.7205 17.3979 16.4393 17.6798C16.1581 17.9616 16.0002 18.3435 16.0002 18.7417H3.72666C3.72666 18.5442 3.68775 18.3487 3.61216 18.1662C3.53657 17.9838 3.42578 17.818 3.28611 17.6784C3.14645 17.5388 2.98064 17.428 2.79817 17.3525C2.6157 17.277 2.42014 17.2381 2.22266 17.2382V12.5587C2.42016 12.5587 2.61574 12.5198 2.79821 12.4442C2.98069 12.3686 3.14649 12.2578 3.28614 12.1182C3.4258 11.9785 3.53659 11.8127 3.61217 11.6302C3.68775 11.4478 3.72666 11.2522 3.72666 11.0547H16.0002C16 11.4529 16.1579 11.8349 16.4391 12.1169C16.7203 12.3989 17.1019 12.5578 17.5002 12.5587V17.2382Z" fill="#B1DFBC"/>
<path d="M9.86147 17.1565C11.1074 17.1565 12.1175 16.1465 12.1175 14.9005C12.1175 13.6546 11.1074 12.6445 9.86147 12.6445C8.61551 12.6445 7.60547 13.6546 7.60547 14.9005C7.60547 16.1465 8.61551 17.1565 9.86147 17.1565Z" fill="#8ED8B5"/>
<path d="M20.6725 4.88519L22.5225 14.4532L23.4995 14.2642L21.465 3.74219L3.08203 7.29669L3.26653 8.25069L20.6725 4.88519Z" fill="#60B18B"/>
<path d="M19.5121 7.768L20.5116 17.378L21.4131 17.2845L20.3046 6.625L1.68164 8.562L1.79064 9.6115L19.5121 7.768Z" fill="#8ED8B5"/>
<path d="M0.5 9.53906V10.5541H18.2V20.2561H19.2235V9.53906H0.5Z" fill="#B1DFBC"/>
<path d="M2.63416 12.4961C2.50068 12.5367 2.36216 12.5584 2.22266 12.5606V13.1676C2.41718 12.9844 2.55925 12.7526 2.63416 12.4961ZM15.3742 18.7436H16.0002C16.0022 18.5996 16.0251 18.4566 16.0682 18.3191C15.802 18.3937 15.5618 18.5406 15.3742 18.7436Z" fill="#8ED8B5"/>
<path d="M15.9997 11.0547H3.72617C3.7255 11.4313 3.58264 11.7938 3.32617 12.0697H14.9762C14.9762 12.2672 15.0151 12.4627 15.0907 12.6452C15.1663 12.8276 15.277 12.9934 15.4167 13.133C15.5564 13.2726 15.7222 13.3834 15.9047 13.4589C16.0871 13.5344 16.2827 13.5733 16.4802 13.5732V17.6457C16.756 17.3854 17.1204 17.2397 17.4997 17.2382V12.5587C17.1014 12.5578 16.7198 12.3989 16.4386 12.1169C16.1574 11.8349 15.9995 11.4529 15.9997 11.0547Z" fill="#C1ECD0"/>
<path d="M9.86106 12.6416C9.44306 12.6428 9.03363 12.7603 8.6787 12.9811C8.32376 13.2019 8.03734 13.5172 7.85156 13.8916C8.15757 13.7383 8.4948 13.6576 8.83706 13.6556C9.13332 13.6556 9.42669 13.714 9.7004 13.8274C9.97411 13.9407 10.2228 14.1069 10.4323 14.3164C10.6418 14.5259 10.808 14.7746 10.9213 15.0483C11.0347 15.322 11.0931 15.6154 11.0931 15.9116C11.0909 16.2613 11.0064 16.6056 10.8466 16.9166C11.3059 16.6948 11.6761 16.3234 11.8967 15.8635C12.1172 15.4036 12.175 14.8824 12.0604 14.3853C11.9459 13.8883 11.6658 13.4449 11.2662 13.1279C10.8666 12.8109 10.3711 12.6391 9.86106 12.6406V12.6416Z" fill="#B1DFBC"/>
<path d="M19.2235 20.76H0.5C0.367392 20.76 0.240215 20.7073 0.146447 20.6135C0.0526784 20.5198 0 20.3926 0 20.26V9.54297C0 9.41036 0.0526784 9.28318 0.146447 9.18942C0.240215 9.09565 0.367392 9.04297 0.5 9.04297H19.2235C19.3561 9.04297 19.4833 9.09565 19.5771 9.18942C19.6708 9.28318 19.7235 9.41036 19.7235 9.54297V20.26C19.7235 20.3926 19.6708 20.5198 19.5771 20.6135C19.4833 20.7073 19.3561 20.76 19.2235 20.76ZM1 19.76H18.7235V10.043H1V19.76Z" fill="#1C1C1B"/>
<path d="M16.0002 19.2417H3.72666C3.59405 19.2417 3.46687 19.189 3.3731 19.0952C3.27933 19.0015 3.22666 18.8743 3.22666 18.7417C3.22626 18.4756 3.12034 18.2205 2.93212 18.0324C2.74391 17.8442 2.48877 17.7385 2.22266 17.7382C2.09005 17.7382 1.96287 17.6855 1.8691 17.5917C1.77533 17.498 1.72266 17.3708 1.72266 17.2382V12.5587C1.72266 12.4261 1.77533 12.2989 1.8691 12.2051C1.96287 12.1114 2.09005 12.0587 2.22266 12.0587C2.48881 12.0583 2.74395 11.9524 2.93215 11.7642C3.12035 11.576 3.22626 11.3208 3.22666 11.0547C3.22666 10.9221 3.27933 10.7949 3.3731 10.7011C3.46687 10.6074 3.59405 10.5547 3.72666 10.5547H16.0002C16.1328 10.5547 16.2599 10.6074 16.3537 10.7011C16.4475 10.7949 16.5002 10.9221 16.5002 11.0547C16.5004 11.3202 16.6057 11.5748 16.7931 11.7629C16.9805 11.951 17.2347 12.0574 17.5002 12.0587C17.6328 12.0587 17.7599 12.1114 17.8537 12.2051C17.9475 12.2989 18.0002 12.4261 18.0002 12.5587V17.2382C18.0002 17.3708 17.9475 17.498 17.8537 17.5917C17.7599 17.6855 17.6328 17.7382 17.5002 17.7382C17.2341 17.7385 16.979 17.8443 16.7909 18.0324C16.6027 18.2205 16.4969 18.4756 16.4967 18.7417C16.4967 18.8737 16.4445 19.0003 16.3514 19.094C16.2584 19.1877 16.1322 19.2408 16.0002 19.2417ZM4.16566 18.2417H15.5657C15.6551 17.8955 15.8351 17.5794 16.0872 17.3258C16.3393 17.0723 16.6545 16.8905 17.0002 16.7992V12.9952C16.6536 12.9051 16.3373 12.724 16.0841 12.4708C15.8308 12.2175 15.6498 11.9013 15.5597 11.5547H4.16316C4.07312 11.9013 3.89211 12.2176 3.63886 12.4709C3.38561 12.7241 3.06931 12.9051 2.72266 12.9952V16.7992C3.0695 16.8895 3.38592 17.0708 3.63918 17.3244C3.89244 17.578 4.07333 17.8947 4.16316 18.2417H4.16566Z" fill="#1C1C1B"/>
<path d="M9.86197 17.6565C9.31682 17.6566 8.78389 17.4951 8.33058 17.1922C7.87727 16.8894 7.52395 16.459 7.31531 15.9553C7.10666 15.4517 7.05207 14.8975 7.15844 14.3628C7.2648 13.8281 7.52735 13.337 7.91286 12.9516C8.29837 12.5661 8.78954 12.3037 9.32423 12.1974C9.85892 12.0911 10.4131 12.1458 10.9167 12.3546C11.4203 12.5633 11.8507 12.9167 12.1535 13.3701C12.4562 13.8234 12.6177 14.3564 12.6175 14.9015C12.6163 15.6319 12.3256 16.3321 11.8091 16.8485C11.2925 17.3649 10.5924 17.6555 9.86197 17.6565ZM9.86197 13.145C9.51467 13.1449 9.17513 13.2478 8.8863 13.4407C8.59748 13.6336 8.37233 13.9077 8.23933 14.2286C8.10633 14.5494 8.07146 14.9025 8.13911 15.2431C8.20677 15.5838 8.37393 15.8967 8.61944 16.1424C8.86495 16.388 9.17779 16.5553 9.5184 16.6232C9.85901 16.691 10.2121 16.6564 10.533 16.5236C10.8539 16.3907 11.1282 16.1657 11.3213 15.877C11.5143 15.5883 11.6174 15.2488 11.6175 14.9015C11.6172 14.4359 11.4322 13.9895 11.1031 13.6601C10.7739 13.3308 10.3276 13.1456 9.86197 13.145Z" fill="#1C1C1B"/>
<path d="M20.4104 17.8963C20.2821 17.8963 20.1588 17.847 20.0658 17.7586C19.9728 17.6702 19.9174 17.5494 19.911 17.4213C19.9046 17.2932 19.9476 17.1675 20.0313 17.0702C20.1149 16.973 20.2328 16.9116 20.3604 16.8988L20.9374 16.8383L19.9224 7.17479L3.82593 8.86479C3.69398 8.87865 3.56193 8.83952 3.45884 8.75602C3.35574 8.67252 3.29003 8.55148 3.27618 8.41954C3.26232 8.28759 3.30144 8.15555 3.38494 8.05245C3.46844 7.94935 3.58948 7.88365 3.72143 7.86979L20.3134 6.12779C20.3788 6.12086 20.4448 6.12687 20.5078 6.14549C20.5709 6.16411 20.6296 6.19497 20.6807 6.2363C20.7317 6.27762 20.7742 6.32861 20.8055 6.38635C20.8369 6.44409 20.8566 6.50744 20.8634 6.57279L21.9829 17.2313C21.9899 17.2966 21.9838 17.3627 21.9652 17.4257C21.9466 17.4887 21.9157 17.5474 21.8744 17.5985C21.8331 17.6496 21.7821 17.692 21.7244 17.7234C21.6666 17.7548 21.6033 17.7744 21.5379 17.7813L20.4634 17.8943C20.4454 17.8953 20.4279 17.8963 20.4104 17.8963Z" fill="#1C1C1B"/>
<path d="M22.6833 14.9251C22.559 14.925 22.4391 14.8786 22.3471 14.7948C22.2552 14.7111 22.1977 14.5961 22.186 14.4723C22.1742 14.3485 22.2091 14.2248 22.2836 14.1253C22.3582 14.0258 22.4672 13.9576 22.5893 13.9341L22.9148 13.8716L21.0838 4.32861L5.41331 7.33461C5.34873 7.34699 5.28235 7.34652 5.21795 7.33325C5.15355 7.31997 5.0924 7.29414 5.03799 7.25722C4.92809 7.18268 4.85231 7.06753 4.82731 6.93711C4.81493 6.87253 4.8154 6.80615 4.82867 6.74175C4.84195 6.67735 4.86778 6.6162 4.9047 6.56179C4.94161 6.50737 4.98887 6.46076 5.0438 6.42461C5.09873 6.38846 5.16023 6.36349 5.22481 6.35111L21.3868 3.25111C21.517 3.22619 21.6517 3.25395 21.7614 3.3283C21.8711 3.40264 21.9467 3.51749 21.9718 3.64761L23.9908 14.1731C24.0157 14.3033 23.9879 14.4381 23.9134 14.5478C23.839 14.6575 23.724 14.7332 23.5938 14.7581L22.7778 14.9146C22.7467 14.921 22.7151 14.9245 22.6833 14.9251Z" fill="#1C1C1B"/>
</svg>
