<svg width="16" height="16" viewBox="0 0 16 16" fill="none" xmlns="http://www.w3.org/2000/svg">
<path d="M10.4688 5.3125H9.09375V6.42956C9.09419 6.46435 9.08625 6.49872 9.07059 6.52979C9.05494 6.56085 9.03203 6.58769 9.00381 6.60803C8.96768 6.6342 8.92421 6.6483 8.87959 6.64831C8.85498 6.64826 8.83055 6.64404 8.80734 6.63581L8.00056 6.35262L7.19406 6.63581C7.16129 6.64746 7.12618 6.65101 7.09173 6.64615C7.05729 6.64129 7.02453 6.62817 6.99625 6.60791C6.96798 6.58764 6.94503 6.56084 6.92935 6.52979C6.91368 6.49873 6.90575 6.46434 6.90625 6.42956V5.3125H5.53125V9.78125H10.4688V5.3125ZM6.65759 7.5625H8.41659C8.47461 7.5625 8.53025 7.58555 8.57127 7.62657C8.6123 7.66759 8.63534 7.72323 8.63534 7.78125C8.63534 7.83927 8.6123 7.89491 8.57127 7.93593C8.53025 7.97695 8.47461 8 8.41659 8H6.65759C6.59958 8 6.54394 7.97695 6.50291 7.93593C6.46189 7.89491 6.43884 7.83927 6.43884 7.78125C6.43884 7.72323 6.46189 7.66759 6.50291 7.62657C6.54394 7.58555 6.59958 7.5625 6.65759 7.5625V7.5625ZM9.34241 8.9375H6.65759C6.59958 8.9375 6.54394 8.91445 6.50291 8.87343C6.46189 8.83241 6.43884 8.77677 6.43884 8.71875C6.43884 8.66073 6.46189 8.60509 6.50291 8.56407C6.54394 8.52305 6.59958 8.5 6.65759 8.5H9.34241C9.40042 8.5 9.45606 8.52305 9.49709 8.56407C9.53811 8.60509 9.56116 8.66073 9.56116 8.71875C9.56116 8.77677 9.53811 8.83241 9.49709 8.87343C9.45606 8.91445 9.40042 8.9375 9.34241 8.9375Z" fill="black"/>
<path d="M8.07019 5.91453L8.65625 6.12097V5.3125H7.34375V6.12097L7.92872 5.91453C7.97444 5.89809 8.02446 5.89809 8.07019 5.91453Z" fill="black"/>
<path d="M5.3125 3.78125H3.9375V14.0938H12.0625V3.78125H10.7188V3.90059C10.7182 3.95957 10.6946 4.01599 10.6531 4.05789C10.6116 4.09978 10.5554 4.12386 10.4964 4.125H5.51753C5.39669 4.125 5.3125 4.02141 5.3125 3.90059V3.78125ZM4.86 11.2188H7.69125C7.74927 11.2188 7.80491 11.2418 7.84593 11.2828C7.88695 11.3238 7.91 11.3795 7.91 11.4375C7.91 11.4955 7.88695 11.5512 7.84593 11.5922C7.80491 11.6332 7.74927 11.6562 7.69125 11.6562H4.86C4.80198 11.6563 4.74634 11.6332 4.70532 11.5922C4.6643 11.5512 4.64125 11.4955 4.64125 11.4375C4.64125 11.3795 4.6643 11.3238 4.70532 11.2828C4.74634 11.2418 4.80198 11.2188 4.86 11.2188V11.2188ZM11.3588 12.5625C11.3588 12.6205 11.3357 12.6762 11.2947 12.7172C11.2537 12.7582 11.198 12.7812 11.14 12.7812H4.86C4.80198 12.7812 4.74634 12.7582 4.70532 12.7172C4.6643 12.6762 4.64125 12.6205 4.64125 12.5625C4.64125 12.5045 4.6643 12.4488 4.70532 12.4078C4.74634 12.3668 4.80198 12.3438 4.86 12.3438H11.14C11.198 12.3438 11.2537 12.3668 11.2947 12.4078C11.3357 12.4488 11.3588 12.5045 11.3588 12.5625ZM10.6562 4.875C10.7143 4.875 10.7699 4.89805 10.8109 4.93907C10.852 4.98009 10.875 5.03573 10.875 5.09375V10C10.875 10.058 10.852 10.1137 10.8109 10.1547C10.7699 10.1957 10.7143 10.2188 10.6562 10.2188H5.3125C5.25448 10.2188 5.19884 10.1957 5.15782 10.1547C5.1168 10.1137 5.09375 10.058 5.09375 10V5.09375C5.09375 5.03573 5.1168 4.98009 5.15782 4.93907C5.19884 4.89805 5.25448 4.875 5.3125 4.875H10.6562ZM10.2812 2.66484C10.2806 2.48157 10.208 2.30588 10.079 2.17566C9.95005 2.04545 9.77507 1.97113 9.59181 1.96875H6.42212C6.04394 1.96875 5.75 2.28666 5.75 2.66484V3.6875H10.2812V2.66484ZM8.14447 0.90625H7.86947C7.50384 0.90625 7.20444 1.1875 7.18472 1.53125H8.82922C8.80938 1.1875 8.50994 0.90625 8.14447 0.90625Z" fill="black"/>
<path d="M12.739 2.90625H10.7188V3.34375H12.2896C12.3171 3.34222 12.3446 3.34639 12.3703 3.356C12.3961 3.3656 12.4196 3.38044 12.4394 3.39957C12.4591 3.4187 12.4747 3.44171 12.4852 3.46716C12.4956 3.49261 12.5006 3.51994 12.5 3.54744V14.2991C12.5 14.4199 12.4104 14.5312 12.2896 14.5312H3.71038C3.58957 14.5312 3.5 14.4199 3.5 14.2991V3.54744C3.49936 3.51994 3.50442 3.49261 3.51485 3.46716C3.52528 3.44171 3.54087 3.4187 3.56063 3.39957C3.58039 3.38044 3.60389 3.3656 3.62967 3.356C3.65544 3.34639 3.68292 3.34222 3.71038 3.34375H5.3125V2.90625H3.261C3.16603 2.90798 3.07556 2.94704 3.00917 3.01498C2.94277 3.08291 2.9058 3.17426 2.90625 3.26925V14.7505C2.90642 14.7965 2.91579 14.842 2.93382 14.8843C2.95185 14.9267 2.97818 14.965 3.01124 14.9969C3.0443 15.0289 3.08343 15.054 3.12633 15.0706C3.16923 15.0872 3.21502 15.0951 3.261 15.0938H12.7391C12.7851 15.0951 12.8309 15.0872 12.8738 15.0706C12.9167 15.0539 12.9558 15.0289 12.9888 14.9969C13.0219 14.9649 13.0482 14.9266 13.0662 14.8843C13.0842 14.842 13.0936 14.7965 13.0938 14.7505V3.26922C13.0942 3.17423 13.0572 3.0829 12.9908 3.01497C12.9244 2.94704 12.834 2.90798 12.739 2.90625Z" fill="black"/>
</svg>
