<svg width="14" height="17" viewBox="0 0 14 17" fill="none" xmlns="http://www.w3.org/2000/svg">
<path fill-rule="evenodd" clip-rule="evenodd" d="M7 9.45716C5.34115 9.45716 3.99219 8.26207 3.99219 6.79941C3.99219 5.31892 5.34115 4.14167 7 4.14167C8.65885 4.14167 10.0078 5.33676 10.0078 6.79941C10.0078 8.26207 8.65885 9.45716 7 9.45716ZM0 6.79941C0 11.4549 7 16.5742 7 16.5742C7 16.5742 14 11.4549 14 6.79941C14 3.35683 10.8828 0.574219 7 0.574219C3.11719 0.574219 0 3.35683 0 6.79941C0 6.79941 0 11.4549 0 6.79941ZM2.00521 6.79941C2.00521 4.33788 4.22917 2.35794 7 2.35794C9.77083 2.35794 11.9948 4.33788 11.9948 6.79941C11.9948 8.45828 10.6823 10.4739 8.95052 12.2933C8.27604 13.0246 7.58333 13.6667 7 14.1662C6.4349 13.6667 5.72396 13.0246 5.03125 12.2933C3.31771 10.456 2.00521 8.44044 2.00521 6.79941C2.00521 6.79941 2.00521 4.33788 2.00521 6.79941Z" fill="#FFAF2A"/>
</svg>
