<svg width="140" height="122" viewBox="0 0 140 122" fill="none" xmlns="http://www.w3.org/2000/svg">
<path d="M84.4642 105.583V40.8555H55.5356V105.583C55.5356 107.09 56.078 108.25 57.1628 109.064C58.2476 109.877 59.6338 110.284 61.3213 110.284H78.6784C80.3659 110.284 81.7521 109.877 82.8369 109.064C83.9217 108.25 84.4642 107.09 84.4642 105.583ZM43.2409 29.284H60.8693L49.4787 14.7294C47.9117 12.861 45.8325 11.9269 43.2409 11.9269C40.8302 11.9269 38.7811 12.7706 37.0936 14.4581C35.4061 16.1456 34.5624 18.1948 34.5624 20.6055C34.5624 23.0162 35.4061 25.0653 37.0936 26.7528C38.7811 28.4403 40.8302 29.284 43.2409 29.284ZM105.437 20.6055C105.437 18.1948 104.594 16.1456 102.906 14.4581C101.219 12.7706 99.1695 11.9269 96.7588 11.9269C94.1673 11.9269 92.088 12.861 90.5211 14.7294L79.2208 29.284H96.7588C99.1695 29.284 101.219 28.4403 102.906 26.7528C104.594 25.0653 105.437 23.0162 105.437 20.6055ZM139.428 43.7483V72.6769C139.428 73.5206 139.157 74.2137 138.615 74.7561C138.072 75.2985 137.379 75.5698 136.536 75.5698H127.857V113.177C127.857 115.588 127.013 117.637 125.326 119.324C123.638 121.012 121.589 121.855 119.178 121.855H20.8213C18.4106 121.855 16.3615 121.012 14.674 119.324C12.9865 117.637 12.1427 115.588 12.1427 113.177V75.5698H3.46415C2.6204 75.5698 1.92732 75.2985 1.38491 74.7561C0.842494 74.2137 0.571289 73.5206 0.571289 72.6769V43.7483C0.571289 42.9046 0.842494 42.2115 1.38491 41.6691C1.92732 41.1267 2.6204 40.8555 3.46415 40.8555H43.2409C37.636 40.8555 32.8598 38.8817 28.9123 34.9342C24.9647 30.9866 22.9909 26.2104 22.9909 20.6055C22.9909 15.0006 24.9647 10.2243 28.9123 6.27679C32.8598 2.32924 37.636 0.355469 43.2409 0.355469C49.6896 0.355469 54.7521 2.67578 58.4284 7.31641L69.9999 22.2327L81.5713 7.31641C85.2476 2.67578 90.3101 0.355469 96.7588 0.355469C102.364 0.355469 107.14 2.32924 111.087 6.27679C115.035 10.2243 117.009 15.0006 117.009 20.6055C117.009 26.2104 115.035 30.9866 111.087 34.9342C107.14 38.8817 102.364 40.8555 96.7588 40.8555H136.536C137.379 40.8555 138.072 41.1267 138.615 41.6691C139.157 42.2115 139.428 42.9046 139.428 43.7483Z" fill="#92929D"/>
</svg>
