<svg width="28" height="28" viewBox="0 0 28 28" fill="none" xmlns="http://www.w3.org/2000/svg">
<path opacity="0.3" d="M25.8125 10.9383C25.8125 11.9008 25.55 12.8195 25.0687 13.607C24.8937 13.8695 24.7187 14.132 24.5437 14.3508C24.1062 14.8758 23.5813 15.2695 22.9688 15.5758C22.7063 15.707 22.4437 15.8383 22.1375 15.9258C21.6562 16.1008 21.1312 16.1883 20.5625 16.1883C17.675 16.1883 15.3125 13.8258 15.3125 10.9383C15.3125 10.3695 15.4 9.84453 15.575 9.31953C15.6625 9.01328 15.7938 8.75078 15.925 8.48828C16.8 6.82578 18.55 5.64453 20.6062 5.64453C23.45 5.68828 25.8125 8.05078 25.8125 10.9383Z" fill="#E13455"/>
<path d="M18.2875 23.625H4.375C3.63125 23.625 3.0625 23.0562 3.0625 22.3125V9.14375C3.10625 8.4 3.675 7.875 4.375 7.875H19.25C19.9937 7.875 20.5625 8.44375 20.5625 9.1875V14.5687C20.5625 14.7437 20.4312 14.9187 20.2563 15.0062L17.0625 15.8812V19.2937C17.0625 20.125 17.2813 20.9562 17.675 21.7C17.8938 22.1375 18.2 22.5312 18.55 22.8375C18.6813 22.9688 18.725 23.1437 18.6375 23.3187C18.6375 23.5375 18.4625 23.625 18.2875 23.625ZM4.375 8.75C4.15625 8.75 3.9375 8.925 3.9375 9.1875V22.3125C3.9375 22.575 4.1125 22.75 4.375 22.75H17.325C17.1937 22.575 17.0625 22.3562 16.9313 22.1375C16.45 21.2625 16.1875 20.3 16.1875 19.2937V15.5312C16.1875 15.3562 16.3188 15.1813 16.4938 15.0938L19.6875 14.175V9.1875C19.6875 8.925 19.5125 8.75 19.25 8.75H4.375Z" fill="black"/>
<path d="M20.125 9.625C19.8625 9.625 19.6875 9.45 19.6875 9.1875C19.6875 8.925 19.5125 8.75 19.25 8.75H4.375C4.15625 8.75 3.9375 8.925 3.9375 9.1875C3.9375 9.40625 3.71875 9.58125 3.5 9.625C3.28125 9.625 3.0625 9.40625 3.0625 9.1875C3.0625 8.3125 3.19375 7.39375 3.45625 6.5625L4.2 4.025C4.375 3.45625 4.9 3.0625 5.46875 3.0625H18.1562C18.725 3.0625 19.25 3.45625 19.425 3.98125L20.2125 6.5625C20.4312 7.4375 20.5625 8.3125 20.5625 9.1875C20.5625 9.45 20.3875 9.625 20.125 9.625ZM5.46875 3.9375C5.29375 3.9375 5.11875 4.06875 5.03125 4.24375L4.2875 6.78125C4.15625 7.175 4.06875 7.525 4.025 7.91875C4.15625 7.875 4.24375 7.875 4.375 7.875H19.25C19.3813 7.875 19.4688 7.875 19.6 7.91875C19.5562 7.56875 19.4688 7.21875 19.3375 6.86875L18.55 4.2875C18.5063 4.1125 18.3313 3.98125 18.1125 3.98125H5.46875V3.9375Z" fill="black"/>
<path d="M13.5625 8.75H10.0625C9.8 8.75 9.625 8.575 9.625 8.3125V3.5C9.625 3.2375 9.8 3.0625 10.0625 3.0625H13.5625C13.825 3.0625 14 3.2375 14 3.5V8.3125C14 8.575 13.825 8.75 13.5625 8.75ZM10.5 7.875H13.125V3.9375H10.5V7.875Z" fill="#E13455"/>
<path d="M10.0625 12.6875C9.975 12.6875 9.8875 12.6875 9.84375 12.6437C9.7125 12.5562 9.625 12.3812 9.625 12.25V8.3125C9.625 8.05 9.8 7.875 10.0625 7.875H13.5625C13.825 7.875 14 8.05 14 8.3125V12.25C14 12.3812 13.9125 12.5562 13.7812 12.6437C13.65 12.7312 13.475 12.7312 13.3438 12.6437L12.6875 12.2938L11.9875 12.6437C11.8562 12.6875 11.725 12.6875 11.5938 12.6437L10.9375 12.2938L10.2812 12.6437C10.1938 12.6875 10.15 12.6875 10.0625 12.6875ZM10.9375 11.375C11.025 11.375 11.0687 11.375 11.1125 11.4188L11.8125 11.7687L12.5125 11.4188C12.6438 11.375 12.775 11.375 12.9062 11.4188L13.125 11.55V8.75H10.5V11.55L10.7188 11.4188C10.7625 11.375 10.85 11.375 10.9375 11.375ZM20.125 21C19.9937 21 19.9062 20.9563 19.8187 20.8688L18.725 19.775C18.55 19.6 18.55 19.3375 18.725 19.1625C18.9 18.9875 19.1625 18.9875 19.3375 19.1625L20.125 19.95L22.0062 18.0687C22.1812 17.8937 22.4438 17.8937 22.6188 18.0687C22.7938 18.2437 22.7938 18.5063 22.6188 18.6813L20.4313 20.8688C20.3438 20.9563 20.2563 21 20.125 21Z" fill="#E13455"/>
<path d="M20.5633 24.9375C20.5195 24.9375 20.4758 24.9375 20.432 24.9375C19.6883 24.7188 18.9883 24.3687 18.3758 23.8875C18.2445 23.8 18.1133 23.6687 17.9383 23.5375C17.5445 23.1437 17.1945 22.6625 16.8883 22.1813C16.407 21.3063 16.1445 20.3438 16.1445 19.3375V15.575C16.1445 15.4 16.2758 15.225 16.4508 15.1375L20.3883 14C20.4758 14 20.5633 14 20.607 14L24.5445 15.1375C24.7195 15.1812 24.8508 15.3562 24.8508 15.575V19.3375C24.8508 21.9188 23.1008 24.2375 20.607 24.9375C20.6508 24.9375 20.607 24.9375 20.5633 24.9375ZM17.0633 15.8812V19.2937C17.0633 20.125 17.282 20.9562 17.6758 21.7C17.8945 22.1375 18.2008 22.5312 18.5508 22.8375C18.682 22.925 18.7695 23.0563 18.9008 23.1438C19.382 23.5375 19.9508 23.8438 20.5195 24.0188C22.5758 23.3625 24.0195 21.4375 24.0195 19.2937V15.8812L20.5633 14.875L17.0633 15.8812Z" fill="black"/>
<path d="M9.1875 19.25H5.6875C5.425 19.25 5.25 19.075 5.25 18.8125C5.25 18.55 5.425 18.375 5.6875 18.375H9.1875C9.45 18.375 9.625 18.55 9.625 18.8125C9.625 19.075 9.45 19.25 9.1875 19.25ZM9.1875 21.4375H5.6875C5.425 21.4375 5.25 21.2625 5.25 21C5.25 20.7375 5.425 20.5625 5.6875 20.5625H9.1875C9.45 20.5625 9.625 20.7375 9.625 21C9.625 21.2625 9.45 21.4375 9.1875 21.4375Z" fill="#E13455"/>
</svg>
