<svg width="25" height="25" viewBox="0 0 25 25" fill="none" xmlns="http://www.w3.org/2000/svg">
<path d="M21.5908 1.13672V13.0685L19.318 12.5004L14.7726 13.6367C14.7726 18.3413 14.7726 18.5117 14.9203 19.3185H1.13623V1.13672H21.5908Z" fill="white"/>
<path d="M23.8639 13.6364V18.0227C23.8624 19.3628 23.4148 20.6643 22.5918 21.7219C21.7688 22.7795 20.6171 23.533 19.3184 23.8636C18.2354 23.5895 17.2502 23.0189 16.4734 22.216C15.6966 21.4131 15.1589 20.4096 14.9207 19.3182C14.7729 18.4545 14.7729 18.1818 14.7729 13.6364L19.3184 12.5L23.8639 13.6364Z" fill="white"/>
<path d="M19.3184 12.5V18.1818H14.7729C14.7729 18.0682 14.7729 18.1023 14.7729 13.6364L19.3184 12.5ZM23.8639 18.1818C23.8314 19.4955 23.3693 20.7624 22.5484 21.7886C21.7275 22.8147 20.5929 23.5436 19.3184 23.8636V18.1818H23.8639Z" fill="#B9D9F4"/>
<path d="M13.6363 6.81889L11.3635 5.68253L9.09082 6.81889V2.27344H13.6363V6.81889Z" fill="#0084F0"/>
<path d="M22.7273 12.1818V0H0V20.4545H14.0682C14.4848 21.596 15.1855 22.6124 16.1041 23.4077C17.0227 24.203 18.1289 24.751 19.3182 25C20.9251 24.659 22.3662 23.7765 23.4004 22.5003C24.4347 21.224 24.9993 19.6313 25 17.9886V12.75L22.7273 12.1818ZM13.6364 18.1818H2.27273V2.27273H20.4545V11.6136L19.3182 11.3636L13.6364 12.7841C13.6364 20.1932 13.6364 17.625 13.6364 18.1818ZM22.7273 18.0227C22.7391 19.0689 22.414 20.0911 21.8001 20.9383C21.1862 21.7855 20.316 22.4127 19.3182 22.7273C18.3278 22.415 17.463 21.7947 16.8498 20.9566C16.2366 20.1186 15.907 19.1066 15.9091 18.0682V14.5227L19.3182 13.6364L22.7273 14.4886V18.0227Z" fill="#053582"/>
<path d="M9.09086 13.6367H4.54541V15.9094H9.09086V13.6367Z" fill="#053582"/>
</svg>
