<svg width="68" height="68" viewBox="0 0 68 68" fill="none" xmlns="http://www.w3.org/2000/svg">
<path d="M49.415 28.0514H46.2583C45.1747 28.0514 44.2961 27.1728 44.2961 26.0892C44.2961 25.0056 45.1747 24.127 46.2583 24.127H49.415C51.7791 24.127 53.7021 22.2038 53.7021 19.84C53.7021 17.4762 51.7788 15.5529 49.415 15.5529H18.585C16.2209 15.5529 14.2979 17.4762 14.2979 19.84C14.2979 22.2038 16.2212 24.1274 18.585 24.1274H21.6751C22.7587 24.1274 23.6373 25.006 23.6373 26.0896C23.6373 27.1732 22.7587 28.0518 21.6751 28.0518H18.585C16.3917 28.0518 14.3294 27.1975 12.7786 25.6467C11.2278 24.0959 10.3736 22.0336 10.3736 19.8403C10.3736 17.6471 11.2278 15.5847 12.7786 14.0339C14.3294 12.4831 16.3917 11.6289 18.585 11.6289H49.4154C51.6086 11.6289 53.6709 12.4831 55.2218 14.0339C56.7726 15.5847 57.6268 17.6471 57.6268 19.8403C57.6268 22.0336 56.7726 24.0959 55.2218 25.6467C53.6709 27.1975 51.6086 28.0518 49.4154 28.0518L49.415 28.0514Z" fill="#1485E0"/>
<path d="M47.9227 21.8033H20.0773C18.9937 21.8033 18.1151 20.9247 18.1151 19.8411C18.1151 18.7575 18.9937 17.8789 20.0773 17.8789H47.9227C49.0063 17.8789 49.8849 18.7575 49.8849 19.8411C49.8849 20.9247 49.0063 21.8033 47.9227 21.8033Z" fill="#1485E0"/>
<path d="M45.7833 17.8789H22.2167C21.1331 17.8789 20.2545 18.7575 20.2545 19.8411V50.5761C20.2545 53.7721 22.8548 56.3723 26.0508 56.3723H41.9492C45.1452 56.3723 47.7455 53.7721 47.7455 50.5761V19.8411C47.7455 18.7575 46.8669 17.8789 45.7833 17.8789ZM38.6037 40.4346C38.083 40.9461 37.2464 40.939 36.7346 40.4184L35.338 38.9971L35.2781 45.9101C35.2717 46.6402 34.6749 47.2265 33.9449 47.2204C33.2148 47.214 32.6282 46.6172 32.6346 45.8871L32.6945 38.9741L31.2732 40.3707C30.7526 40.8822 29.9159 40.8751 29.4041 40.3544C28.8926 39.8338 28.8997 38.9971 29.4203 38.4853L33.1174 34.8522C33.3775 34.5964 33.7172 34.4702 34.0551 34.4733C34.3931 34.4763 34.7304 34.6083 34.9865 34.8684L38.6196 38.5655C39.1311 39.0861 39.124 39.9227 38.6034 40.4346H38.6037ZM37.7532 28.0525H30.2468C29.1632 28.0525 28.2846 27.1739 28.2846 26.0903C28.2846 25.0067 29.1632 24.1281 30.2468 24.1281H37.7532C38.8368 24.1281 39.7154 25.0067 39.7154 26.0903C39.7154 27.1739 38.8368 28.0525 37.7532 28.0525Z" fill="#1485E0"/>
</svg>
