<svg width="42" height="42" viewBox="0 0 42 42" fill="none" xmlns="http://www.w3.org/2000/svg">
<path d="M36.6766 34.1744C38.7744 31.6525 40.2335 28.6627 40.9304 25.4581C41.6272 22.2536 41.5414 18.9284 40.6801 15.764C39.8188 12.5996 38.2074 9.68897 35.9822 7.27841C33.757 4.86785 30.9835 3.02824 27.8963 1.91522C24.809 0.802188 21.4989 0.448482 18.246 0.884019C14.993 1.31956 11.8929 2.53152 9.2078 4.41739C6.52276 6.30326 4.33179 8.80756 2.82025 11.7184C1.30871 14.6293 0.521059 17.8611 0.523934 21.1404C0.525037 25.9077 2.20637 30.5223 5.2729 34.1744L5.24369 34.1993C5.34594 34.3219 5.4628 34.4269 5.56798 34.5481C5.69945 34.6984 5.84114 34.84 5.977 34.986C6.38601 35.4297 6.80671 35.8559 7.24787 36.2558C7.38226 36.3784 7.52103 36.4922 7.65688 36.609C8.12433 37.0119 8.60493 37.3943 9.10305 37.7504C9.16732 37.7942 9.22575 37.8511 9.29003 37.8964V37.8788C12.7113 40.2845 16.7927 41.5755 20.9762 41.5755C25.1597 41.5755 29.2411 40.2845 32.6624 37.8788V37.8964C32.7267 37.8511 32.7836 37.7942 32.8494 37.7504C33.346 37.3928 33.8281 37.0119 34.2955 36.609C34.4314 36.4922 34.5702 36.3769 34.7045 36.2558C35.1457 35.8544 35.5664 35.4297 35.9754 34.986C36.1113 34.84 36.2515 34.6984 36.3844 34.5481C36.4881 34.4269 36.6065 34.3219 36.7087 34.1978L36.6766 34.1744ZM20.9747 9.46386C22.2749 9.46386 23.5458 9.84907 24.6268 10.5708C25.7078 11.2925 26.5503 12.3183 27.0478 13.5184C27.5454 14.7186 27.6756 16.0392 27.4219 17.3133C27.1683 18.5874 26.5422 19.7577 25.6229 20.6763C24.7036 21.5948 23.5323 22.2204 22.2572 22.4738C20.982 22.7273 19.6603 22.5972 18.4592 22.1001C17.258 21.6029 16.2314 20.7611 15.5091 19.681C14.7868 18.6009 14.4013 17.331 14.4013 16.0319C14.4013 14.29 15.0938 12.6194 16.3266 11.3876C17.5594 10.1559 19.2313 9.46386 20.9747 9.46386ZM9.29879 34.1744C9.32413 32.258 10.1036 30.4285 11.4686 29.0819C12.8335 27.7353 14.6742 26.9797 16.5924 26.9787H25.3571C27.2753 26.9797 29.116 27.7353 30.4809 29.0819C31.8459 30.4285 32.6254 32.258 32.6507 34.1744C29.447 37.059 25.2873 38.6554 20.9747 38.6554C16.6622 38.6554 12.5025 37.059 9.29879 34.1744Z" fill="#DCDCE4"/>
</svg>
