<svg width="35" height="35" viewBox="0 0 35 35" fill="none" xmlns="http://www.w3.org/2000/svg">
<path d="M33.1832 18.9746L20.6324 25.25C19.747 25.6927 18.6956 25.9141 17.4781 25.9141C16.2607 25.9141 15.2093 25.6927 14.3239 25.25L1.77307 18.9746C0.90979 18.5319 0.478149 18.0062 0.478149 17.3975C0.478149 16.7887 0.90979 16.2741 1.77307 15.8535L5.02698 14.2266L14.3239 18.875C15.2093 19.3177 16.2607 19.5391 17.4781 19.5391C18.6956 19.5391 19.747 19.3177 20.6324 18.875L29.9293 14.2266L33.1832 15.8535C34.0465 16.2741 34.4781 16.7943 34.4781 17.4141C34.4781 18.0339 34.0465 18.554 33.1832 18.9746ZM33.1832 10.4746L20.6324 16.75C19.747 17.1927 18.6956 17.4141 17.4781 17.4141C16.2607 17.4141 15.2093 17.1927 14.3239 16.75L1.77307 10.4746C0.90979 10.0319 0.478149 9.50618 0.478149 8.89746C0.478149 8.28874 0.90979 7.76302 1.77307 7.32031L14.3239 1.04492C15.2093 0.624349 16.2607 0.414062 17.4781 0.414062C18.6956 0.414062 19.747 0.624349 20.6324 1.04492L33.1832 7.32031C34.0465 7.76302 34.4781 8.28874 34.4781 8.89746C34.4781 9.50618 34.0465 10.0319 33.1832 10.4746ZM17.4781 2.53906L2.60315 8.91406L17.4781 15.2891L32.3531 8.91406L17.4781 2.53906ZM1.77307 24.3535L5.02698 22.7266L7.3512 23.8887L2.60315 25.9141L17.4781 32.2891L32.3531 25.9141L27.6051 23.8887L29.9293 22.7266L33.1832 24.3535C34.0465 24.7741 34.4781 25.2943 34.4781 25.9141C34.4781 26.5339 34.0465 27.054 33.1832 27.4746L20.6324 33.75C19.747 34.1927 18.6956 34.4141 17.4781 34.4141C16.2607 34.4141 15.2093 34.1927 14.3239 33.75L1.77307 27.4746C0.90979 27.054 0.478149 26.5339 0.478149 25.9141C0.478149 25.2943 0.90979 24.7741 1.77307 24.3535Z" fill="#9B51E0"/>
</svg>
