<svg width="37" height="37" viewBox="0 0 37 37" fill="none" xmlns="http://www.w3.org/2000/svg">
<path fill-rule="evenodd" clip-rule="evenodd" d="M3.26386 5.1875C3.26386 4.0106 3.79817 2.88191 4.74925 2.04971C5.70033 1.21752 6.99027 0.75 8.33529 0.75H28.621C29.966 0.75 31.256 1.21752 32.207 2.04971C33.1581 2.88191 33.6924 4.0106 33.6924 5.1875V31.8125C34.3649 31.8125 35.0099 32.0463 35.4855 32.4624C35.961 32.8785 36.2282 33.4428 36.2282 34.0312C36.2282 34.6197 35.961 35.184 35.4855 35.6001C35.0099 36.0162 34.3649 36.25 33.6924 36.25H26.0853C25.4128 36.25 24.7678 36.0162 24.2923 35.6001C23.8167 35.184 23.5496 34.6197 23.5496 34.0312V29.5938C23.5496 29.0053 23.2824 28.441 22.8069 28.0249C22.3313 27.6088 21.6864 27.375 21.0139 27.375H15.9424C15.2699 27.375 14.625 27.6088 14.1494 28.0249C13.6739 28.441 13.4067 29.0053 13.4067 29.5938V34.0312C13.4067 34.6197 13.1396 35.184 12.664 35.6001C12.1885 36.0162 11.5435 36.25 10.871 36.25H3.26386C2.59135 36.25 1.94638 36.0162 1.47084 35.6001C0.995304 35.184 0.728149 34.6197 0.728149 34.0312C0.728149 33.4428 0.995304 32.8785 1.47084 32.4624C1.94638 32.0463 2.59135 31.8125 3.26386 31.8125V5.1875ZM10.871 7.40625H15.9424V11.8438H10.871V7.40625ZM15.9424 16.2812H10.871V20.7188H15.9424V16.2812ZM21.0139 7.40625H26.0853V11.8438H21.0139V7.40625ZM26.0853 16.2812H21.0139V20.7188H26.0853V16.2812Z" fill="#FFB200"/>
</svg>
