<svg width="39" height="39" viewBox="0 0 39 39" fill="none" xmlns="http://www.w3.org/2000/svg">
<path d="M36.7999 21.1274L22.9572 28.0488C21.9806 28.5371 20.8209 28.7812 19.4781 28.7812C18.1354 28.7812 16.9757 28.5371 15.9991 28.0488L2.15637 21.1274C1.20422 20.6392 0.728149 20.0593 0.728149 19.3879C0.728149 18.7166 1.20422 18.1489 2.15637 17.6851L5.74524 15.8906L15.9991 21.0176C16.9757 21.5059 18.1354 21.75 19.4781 21.75C20.8209 21.75 21.9806 21.5059 22.9572 21.0176L33.2111 15.8906L36.7999 17.6851C37.7521 18.1489 38.2281 18.7227 38.2281 19.4062C38.2281 20.0898 37.7521 20.6636 36.7999 21.1274ZM36.7999 11.7524L22.9572 18.6738C21.9806 19.1621 20.8209 19.4062 19.4781 19.4062C18.1354 19.4062 16.9757 19.1621 15.9991 18.6738L2.15637 11.7524C1.20422 11.2642 0.728149 10.6843 0.728149 10.0129C0.728149 9.34155 1.20422 8.76172 2.15637 8.27344L15.9991 1.35205C16.9757 0.888184 18.1354 0.65625 19.4781 0.65625C20.8209 0.65625 21.9806 0.888184 22.9572 1.35205L36.7999 8.27344C37.7521 8.76172 38.2281 9.34155 38.2281 10.0129C38.2281 10.6843 37.7521 11.2642 36.7999 11.7524ZM19.4781 3L3.0719 10.0312L19.4781 17.0625L35.8844 10.0312L19.4781 3ZM2.15637 27.0601L5.74524 25.2656L8.30872 26.5474L3.0719 28.7812L19.4781 35.8125L35.8844 28.7812L30.6476 26.5474L33.2111 25.2656L36.7999 27.0601C37.7521 27.5239 38.2281 28.0977 38.2281 28.7812C38.2281 29.4648 37.7521 30.0386 36.7999 30.5024L22.9572 37.4238C21.9806 37.9121 20.8209 38.1562 19.4781 38.1562C18.1354 38.1562 16.9757 37.9121 15.9991 37.4238L2.15637 30.5024C1.20422 30.0386 0.728149 29.4648 0.728149 28.7812C0.728149 28.0977 1.20422 27.5239 2.15637 27.0601Z" fill="#00CE2D"/>
</svg>
