<svg width="24" height="24" viewBox="0 0 24 24" fill="none" xmlns="http://www.w3.org/2000/svg">
<g clip-path="url(#clip0_2855_49588)">
<path d="M17.6808 22.8464L22.0179 6.6928C22.1849 6.07073 21.8154 5.43083 21.1925 5.2636L13.86 3.29487C13.2371 3.12763 12.5967 3.49639 12.4297 4.11846L8.0926 20.2721C7.92558 20.8941 8.29513 21.534 8.918 21.7012L16.2505 23.67C16.8734 23.8372 17.5138 23.4685 17.6808 22.8464Z" fill="#105286"/>
<path d="M20.947 7.82312C20.4488 7.68979 20.0241 7.36451 19.7661 6.91867C19.5082 6.47284 19.4382 5.943 19.5715 5.44568L15.187 4.27344C15.0534 4.77078 14.7273 5.1947 14.2804 5.45209C13.8336 5.70947 13.3026 5.77921 12.8043 5.6459L9.2793 18.7732C9.77766 18.9064 10.2026 19.2316 10.4607 19.6775C10.7188 20.1233 10.7889 20.6532 10.6555 21.1506L15.04 22.3229C15.1737 21.8257 15.4997 21.4019 15.9464 21.1445C16.393 20.8871 16.9238 20.8173 17.422 20.9504L20.947 7.82312Z" fill="#2DBCA4"/>
<path d="M17.5261 7.20794C17.5766 7.01267 17.5483 6.80537 17.4473 6.6308C17.3462 6.45622 17.1806 6.32847 16.9861 6.27502C16.7906 6.22393 16.5829 6.25172 16.4078 6.35248C16.2326 6.45323 16.1042 6.61878 16.0501 6.81344C15.9993 7.00882 16.0275 7.21639 16.1286 7.39114C16.2296 7.56589 16.3954 7.69375 16.5901 7.74719C16.7857 7.79825 16.9935 7.77036 17.1686 7.66946C17.3437 7.56856 17.4722 7.40275 17.5261 7.20794Z" fill="#105286"/>
<path d="M14.1638 19.724C14.2146 19.5286 14.1864 19.321 14.0853 19.1463C13.9843 18.9715 13.8185 18.8437 13.6238 18.7902C13.4284 18.7396 13.2208 18.7678 13.0459 18.8686C12.871 18.9695 12.7427 19.135 12.6886 19.3295C12.638 19.5248 12.6663 19.7321 12.7674 19.9066C12.8684 20.0812 13.0341 20.2091 13.2286 20.2625C13.4239 20.3134 13.6315 20.2854 13.8064 20.1847C13.9814 20.0839 14.1097 19.9185 14.1638 19.724Z" fill="#496078"/>
<path fill-rule="evenodd" clip-rule="evenodd" d="M18.5485 12.2272H18.541L17.803 12.0299L17.6028 12.7777C17.4183 13.4647 16.999 13.7242 16.5603 13.7414L17.0725 11.8342L16.3353 11.637L15.823 13.5442C15.4518 13.311 15.2178 12.8767 15.4023 12.189L15.4653 11.9535H15.4683L15.604 11.4472L14.8668 11.25L14.8105 11.4585L11.9883 13.1107L12.3738 13.7692L14.5908 12.4717C14.5644 12.8445 14.6479 13.2169 14.8311 13.5428C15.0143 13.8686 15.289 14.1335 15.6213 14.3047L15.3513 15.3097L16.0893 15.5069L16.3593 14.502C16.6398 14.5162 16.924 14.4592 17.1918 14.3452L16.8273 15.7042L17.5653 15.9014L18.5485 12.2272Z" fill="#496078"/>
<path d="M5.87023 22.6317L1.5329 6.47792C1.36587 5.85585 1.73555 5.21651 2.35859 5.04991L9.69316 3.08868C10.3162 2.92208 10.9567 3.29131 11.1237 3.91338L15.461 20.0671C15.6281 20.6892 15.2584 21.3285 14.6353 21.4951L7.30078 23.4564C6.67774 23.623 6.03725 23.2537 5.87023 22.6317Z" fill="#105286"/>
<path d="M2.65505 7.82312C3.15327 7.68979 3.57804 7.36451 3.83598 6.91867C4.09392 6.47284 4.1639 5.943 4.03055 5.44568L8.41505 4.27344C8.54871 4.77078 8.87482 5.1947 9.32166 5.45209C9.7685 5.70947 10.2995 5.77921 10.7978 5.6459L14.322 18.7732C13.8238 18.9065 13.3991 19.2318 13.1411 19.6776C12.8832 20.1235 12.8132 20.6533 12.9465 21.1506L8.56205 22.3229C8.42839 21.8255 8.10228 21.4016 7.65544 21.1442C7.2086 20.8868 6.67762 20.8171 6.1793 20.9504L2.6543 7.82312H2.65505Z" fill="#2DBCA4"/>
<path d="M6.07529 7.20794C6.02474 7.01267 6.05305 6.80537 6.15409 6.6308C6.25513 6.45622 6.42079 6.32847 6.61529 6.27502C6.81076 6.22393 7.01848 6.25172 7.19361 6.35248C7.36873 6.45323 7.4972 6.61878 7.55129 6.81344C7.60206 7.00882 7.57386 7.21639 7.4728 7.39114C7.37174 7.56589 7.20595 7.69375 7.01129 7.74719C6.81582 7.79803 6.6082 7.76998 6.43323 7.6691C6.25826 7.56821 6.12997 7.40258 6.07604 7.20794H6.07529Z" fill="#105286"/>
<path d="M9.43567 19.7242C9.32767 19.3214 9.57292 18.8984 9.97567 18.7904C10.1712 18.7396 10.379 18.7676 10.554 18.8684C10.7291 18.9693 10.8576 19.135 10.9117 19.3297C10.9622 19.5249 10.9339 19.7323 10.8329 19.9068C10.7318 20.0814 10.5662 20.2092 10.3717 20.2627C10.1762 20.3138 9.96847 20.2859 9.79335 20.1851C9.61823 20.0844 9.48975 19.9188 9.43567 19.7242Z" fill="#496078"/>
<path fill-rule="evenodd" clip-rule="evenodd" d="M5.05078 12.2272H5.05828L5.79628 12.0299L5.99728 12.7777C6.18178 13.4647 6.60028 13.7242 7.03903 13.7414L6.52678 11.8342L7.26478 11.637L7.77628 13.5442C8.14828 13.311 8.38228 12.8767 8.19703 12.189L8.13403 11.9535H8.13103L7.99528 11.4472L8.73328 11.25L8.78953 11.4585L11.611 13.1107L11.2255 13.7692L9.00928 12.4717C9.03561 12.8446 8.95194 13.2171 8.76863 13.5429C8.58532 13.8688 8.31043 14.1336 7.97803 14.3047L8.24803 15.3097L7.51003 15.5069L7.24003 14.502C6.95425 14.5133 6.66962 14.4597 6.40753 14.3452L6.77278 15.7042L6.03478 15.9014L5.05078 12.2272Z" fill="#496078"/>
<path d="M16.7656 18.2655V1.54051C16.7656 0.896824 16.2425 0.375 15.5971 0.375L8.00487 0.375C7.35953 0.375 6.83637 0.896824 6.83637 1.54051L6.83637 18.2655C6.83637 18.9091 7.35953 19.431 8.00487 19.431H15.5971C16.2425 19.431 16.7656 18.9091 16.7656 18.2655Z" fill="#105286"/>
<path d="M16.0296 3.13637C15.5138 3.13637 15.019 2.93186 14.6542 2.56787C14.2894 2.20388 14.0843 1.71017 14.0841 1.19531H9.54511C9.54491 1.71017 9.33985 2.20388 8.97502 2.56787C8.61019 2.93186 8.11546 3.13637 7.59961 3.13637V16.7264C8.11533 16.7266 8.60987 16.9311 8.97453 17.2951C9.3392 17.6591 9.54416 18.1526 9.54436 18.6674H14.0841C14.0843 18.1525 14.2894 17.6588 14.6542 17.2948C15.019 16.9308 15.5138 16.7264 16.0296 16.7264V3.13637Z" fill="#2DBCA4"/>
<path d="M12.5649 3.42606C12.5649 3.00981 12.2184 2.66406 11.8006 2.66406C11.3836 2.66406 11.0371 3.00981 11.0371 3.42606C11.0371 3.84306 11.3836 4.18878 11.8006 4.18878C12.2184 4.18878 12.5649 3.84306 12.5649 3.42606Z" fill="#105286"/>
<path d="M12.5649 16.3839C12.5649 15.9669 12.2184 15.6211 11.8006 15.6211C11.3836 15.6211 11.0371 15.9668 11.0371 16.3831C11.0371 16.8001 11.3836 17.1459 11.8006 17.1459C12.2184 17.1459 12.5649 16.8002 12.5649 16.3839Z" fill="#496078"/>
<path fill-rule="evenodd" clip-rule="evenodd" d="M14.8556 8.00781H14.0838V8.7818C14.0838 9.4928 13.7463 9.85203 13.3278 9.98178V8.00781H12.5643V9.98178C12.1443 9.85278 11.8068 9.4943 11.8068 8.7818V8.53809H11.8076V8.01303H11.0441V8.22983L8.74609 10.5548L9.28909 11.091L11.0943 9.26556C11.1657 9.63253 11.343 9.9705 11.6044 10.2378C11.8658 10.505 12.1998 10.6898 12.5651 10.7693V11.8095H13.3293V10.7693C13.6038 10.7093 13.8641 10.5818 14.0928 10.4033V11.8103H14.8571L14.8556 8.00781Z" fill="#105286"/>
<path d="M21.1815 9.67969H2.5275C1.75292 9.67969 1.125 10.3066 1.125 11.08V22.2242C1.125 22.9975 1.75292 23.6245 2.5275 23.6245H21.1815C21.9561 23.6245 22.584 22.9975 22.584 22.2242V11.08C22.584 10.3066 21.9561 9.67969 21.1815 9.67969Z" fill="#7D9EC7"/>
<path d="M1.125 20.8594V22.1921C1.12797 22.5731 1.28167 22.9375 1.55249 23.2055C1.82332 23.4735 2.18923 23.6233 2.57025 23.6223H21.1365C21.5174 23.6233 21.8832 23.4736 22.154 23.2058C22.4248 22.9379 22.5786 22.5737 22.5817 22.1928V20.8594H2.5695H1.125Z" fill="#5E7C9B"/>
<path fill-rule="evenodd" clip-rule="evenodd" d="M22.5836 15.9648H14.5991L13.6016 16.9608V18.9529L14.5991 19.9489H22.5836V15.9648Z" fill="#EE7581"/>
<path d="M15.3481 18.705C15.7615 18.705 16.0966 18.3706 16.0966 17.958C16.0966 17.5455 15.7615 17.2109 15.3481 17.2109C14.9347 17.2109 14.5996 17.5455 14.5996 17.958C14.5996 18.3706 14.9347 18.705 15.3481 18.705Z" fill="#FFCD00"/>
<path d="M2.79884 10.5273C2.29034 10.5273 1.87109 10.9458 1.87109 11.4536V13.8686C1.87109 13.9554 1.90558 14.0387 1.96698 14.1001C2.02837 14.1615 2.11164 14.196 2.19847 14.196C2.28529 14.196 2.36856 14.1615 2.42996 14.1001C2.49135 14.0387 2.52584 13.9554 2.52584 13.8686V11.4536C2.52584 11.2968 2.64209 11.1813 2.79884 11.1813H16.3446C16.4315 11.1813 16.5149 11.1469 16.5763 11.0855C16.6378 11.0242 16.6723 10.9411 16.6723 10.8544C16.6723 10.7676 16.6378 10.6844 16.5763 10.6231C16.5149 10.5618 16.4315 10.5273 16.3446 10.5273H2.79959H2.79884Z" fill="#E6DFD2"/>
<path d="M8.00325 0.375009C7.84996 0.374415 7.69806 0.404144 7.5563 0.462487C7.41455 0.52083 7.28573 0.606619 7.17726 0.714944C7.0688 0.823269 6.98283 0.952016 6.9243 1.0937C6.86578 1.23538 6.83585 1.38723 6.83625 1.54052V3.84673L2.35575 5.04525C2.2074 5.08427 2.06822 5.15221 1.94621 5.2452C1.82421 5.33819 1.72179 5.45435 1.64485 5.58706C1.5679 5.71977 1.51794 5.86638 1.49785 6.01846C1.47775 6.17053 1.48791 6.32515 1.52775 6.47329L2.39775 9.70428C1.68525 9.77328 1.125 10.35 1.125 11.0798V22.224C1.125 23.0003 1.752 23.6265 2.529 23.6265H21.1808C21.3652 23.627 21.5479 23.5911 21.7184 23.5208C21.8889 23.4505 22.0439 23.3473 22.1744 23.217C22.3049 23.0867 22.4084 22.9318 22.4789 22.7614C22.5495 22.591 22.5857 22.4084 22.5855 22.224V11.0812C22.5855 10.3162 21.9735 9.70423 21.2108 9.68698L22.0733 6.47476C22.113 6.32667 22.1231 6.17219 22.1029 6.0202C22.0828 5.8682 22.0328 5.7217 21.9558 5.58907C21.8789 5.45645 21.7765 5.34034 21.6546 5.2474C21.5326 5.15446 21.3935 5.08656 21.2453 5.04754L16.7648 3.84829V1.54203C16.7651 1.38874 16.7352 1.23684 16.6767 1.09516C16.6182 0.953481 16.5322 0.82478 16.4237 0.716455C16.3153 0.608129 16.1865 0.522341 16.0447 0.463998C15.9029 0.405655 15.751 0.375925 15.5978 0.376519H8.004L8.00325 0.375009Z" stroke="#105286" stroke-miterlimit="3.7" stroke-linecap="round"/>
</g>
<defs>
<clipPath id="clip0_2855_49588">
<rect width="24" height="24" fill="white"/>
</clipPath>
</defs>
</svg>
