<svg width="23" height="18" viewBox="0 0 23 18" fill="none" xmlns="http://www.w3.org/2000/svg">
<path d="M0.75 2.91657C0.75 2.14512 1.00955 1.40527 1.47155 0.859768C1.93356 0.31427 2.56017 0.0078125 3.21354 0.0078125H19.7865C20.4398 0.0078125 21.0664 0.31427 21.5284 0.859768C21.9904 1.40527 22.25 2.14512 22.25 2.91657V5.29646H0.75V2.91657Z" fill="black"/>
<path d="M0.75 6.88281H22.25V15.0802C22.25 15.8517 21.9904 16.5915 21.5284 17.137C21.0664 17.6825 20.4398 17.989 19.7865 17.989H3.21354C2.56017 17.989 1.93356 17.6825 1.47155 17.137C1.00955 16.5915 0.75 15.8517 0.75 15.0802V6.88281ZM15.5312 12.0657C15.3174 12.0657 15.1123 12.166 14.9611 12.3445C14.8099 12.523 14.725 12.7652 14.725 13.0176C14.725 13.2701 14.8099 13.5123 14.9611 13.6908C15.1123 13.8693 15.3174 13.9696 15.5312 13.9696H18.2187C18.4326 13.9696 18.6377 13.8693 18.7889 13.6908C18.9401 13.5123 19.025 13.2701 19.025 13.0176C19.025 12.7652 18.9401 12.523 18.7889 12.3445C18.6377 12.166 18.4326 12.0657 18.2187 12.0657H15.5312Z" fill="black"/>
</svg>
